# MagicaVoxel @ Ephtracy

# group
o 

# material
mtllib balloon-0.mtl
usemtl palette

# normals
vn -1 0 0
vn 1 0 0
vn 0 0 1
vn 0 0 -1
vn 0 -1 0
vn 0 1 0

# texcoords
vt 0.595703 0.5
vt 0.599609 0.5

# verts
v -1.15 -0.15 0.15
v -1.15 -0.15 -0.05
v -1.15 -0.15 -0.15
v -1.15 -0.05 0.05
v -1.15 -0.05 -0.05
v -1.15 -0.05 -0.15
v -1.15 0.05 0.15
v -1.15 0.05 0.05
v -1.15 0.05 -0.05
v -1.15 0.05 -0.15
v -1.15 0.15 0.15
v -1.15 0.15 0.05
v -1.15 0.15 -0.05
v -1.15 0.15 -0.15
v -1.05 -0.25 0.15
v -1.05 -0.25 0.05
v -1.05 -0.25 -0.15
v -1.05 -0.15 0.25
v -1.05 -0.15 0.15
v -1.05 -0.15 0.05
v -1.05 -0.15 -0.05
v -1.05 -0.15 -0.15
v -1.05 -0.15 -0.25
v -1.05 -0.05 -0.15
v -1.05 0.05 0.25
v -1.05 0.05 0.15
v -1.05 0.05 -0.15
v -1.05 0.15 0.25
v -1.05 0.15 0.15
v -1.05 0.15 0.05
v -1.05 0.15 -0.05
v -1.05 0.15 -0.15
v -1.05 0.15 -0.25
v -1.05 0.25 0.15
v -1.05 0.25 0.05
v -1.05 0.25 -0.15
v -0.95 -0.35 0.15
v -0.95 -0.35 0.05
v -0.95 -0.35 -0.05
v -0.95 -0.35 -0.15
v -0.95 -0.25 0.25
v -0.95 -0.25 0.15
v -0.95 -0.25 0.05
v -0.95 -0.25 -0.05
v -0.95 -0.25 -0.15
v -0.95 -0.25 -0.25
v -0.95 -0.15 0.35
v -0.95 -0.15 0.25
v -0.95 -0.15 0.15
v -0.95 -0.15 -0.15
v -0.95 -0.15 -0.25
v -0.95 -0.15 -0.35
v -0.95 -0.05 -0.25
v -0.95 -0.05 -0.35
v -0.95 0.05 0.25
v -0.95 0.15 0.35
v -0.95 0.15 0.25
v -0.95 0.15 0.15
v -0.95 0.15 -0.15
v -0.95 0.15 -0.25
v -0.95 0.15 -0.35
v -0.95 0.25 0.25
v -0.95 0.25 0.15
v -0.95 0.25 0.05
v -0.95 0.25 -0.15
v -0.95 0.25 -0.25
v -0.95 0.35 0.15
v -0.95 0.35 -0.15
v -0.85 -0.35 0.25
v -0.85 -0.35 0.15
v -0.85 -0.35 -0.15
v -0.85 -0.35 -0.25
v -0.85 -0.25 0.35
v -0.85 -0.25 0.25
v -0.85 -0.25 0.15
v -0.85 -0.25 -0.15
v -0.85 -0.25 -0.25
v -0.85 -0.25 -0.35
v -0.85 -0.15 0.35
v -0.85 -0.15 0.25
v -0.85 -0.15 -0.25
v -0.85 -0.15 -0.35
v -0.85 0.15 0.35
v -0.85 0.15 0.25
v -0.85 0.15 -0.25
v -0.85 0.15 -0.35
v -0.85 0.25 0.35
v -0.85 0.25 0.25
v -0.85 0.25 0.15
v -0.85 0.25 -0.15
v -0.85 0.25 -0.25
v -0.85 0.25 -0.35
v -0.85 0.35 0.25
v -0.85 0.35 0.15
v -0.85 0.35 -0.15
v -0.85 0.35 -0.25
v -0.75 -0.45 0.15
v -0.75 -0.45 0.05
v -0.75 -0.45 -0.05
v -0.75 -0.45 -0.15
v -0.75 -0.35 0.35
v -0.75 -0.35 0.25
v -0.75 -0.35 0.15
v -0.75 -0.35 0.05
v -0.75 -0.35 -0.05
v -0.75 -0.35 -0.15
v -0.75 -0.35 -0.25
v -0.75 -0.35 -0.35
v -0.75 -0.25 0.35
v -0.75 -0.25 0.25
v -0.75 -0.25 -0.25
v -0.75 -0.25 -0.35
v -0.75 -0.15 0.45
v -0.75 -0.15 0.35
v -0.75 -0.15 -0.35
v -0.75 -0.15 -0.45
v -0.75 -0.05 0.45
v -0.75 -0.05 0.35
v -0.75 -0.05 -0.35
v -0.75 -0.05 -0.45
v -0.75 0.05 0.35
v -0.75 0.05 -0.35
v -0.75 0.05 -0.45
v -0.75 0.15 0.45
v -0.75 0.15 0.35
v -0.75 0.15 -0.35
v -0.75 0.15 -0.45
v -0.75 0.25 0.35
v -0.75 0.25 0.25
v -0.75 0.25 -0.25
v -0.75 0.25 -0.35
v -0.75 0.35 0.35
v -0.75 0.35 0.25
v -0.75 0.35 0.15
v -0.75 0.35 0.05
v -0.75 0.35 -0.05
v -0.75 0.35 -0.15
v -0.75 0.35 -0.25
v -0.75 0.35 -0.35
v -0.75 0.45 0.15
v -0.75 0.45 -0.05
v -0.75 0.45 -0.15
v -0.65 -0.45 0.25
v -0.65 -0.45 0.15
v -0.65 -0.45 -0.15
v -0.65 -0.45 -0.25
v -0.65 -0.35 0.25
v -0.65 -0.35 0.15
v -0.65 -0.35 -0.15
v -0.65 -0.35 -0.25
v -0.65 -0.25 0.45
v -0.65 -0.25 0.35
v -0.65 -0.25 -0.35
v -0.65 -0.25 -0.45
v -0.65 -0.15 0.45
v -0.65 -0.15 0.35
v -0.65 -0.15 -0.35
v -0.65 -0.15 -0.45
v -0.65 0.15 0.45
v -0.65 0.15 0.35
v -0.65 0.15 -0.35
v -0.65 0.15 -0.45
v -0.65 0.25 0.45
v -0.65 0.25 0.35
v -0.65 0.25 -0.35
v -0.65 0.25 -0.45
v -0.65 0.35 0.25
v -0.65 0.35 0.15
v -0.65 0.35 -0.15
v -0.65 0.35 -0.25
v -0.65 0.45 0.25
v -0.65 0.45 0.15
v -0.65 0.45 -0.15
v -0.65 0.45 -0.25
v -0.45 -0.55 0.15
v -0.45 -0.55 -0.15
v -0.45 -0.45 0.35
v -0.45 -0.45 0.25
v -0.45 -0.45 0.15
v -0.45 -0.45 0.05
v -0.45 -0.45 -0.15
v -0.45 -0.45 -0.25
v -0.45 -0.45 -0.35
v -0.45 -0.35 0.45
v -0.45 -0.35 0.35
v -0.45 -0.35 0.25
v -0.45 -0.35 -0.25
v -0.45 -0.35 -0.35
v -0.45 -0.35 -0.45
v -0.45 -0.25 0.45
v -0.45 -0.25 0.35
v -0.45 -0.25 -0.35
v -0.45 -0.25 -0.45
v -0.45 -0.15 0.55
v -0.45 -0.15 0.45
v -0.45 -0.15 -0.45
v -0.45 -0.15 -0.55
v -0.45 -0.05 0.55
v -0.45 -0.05 0.45
v -0.45 -0.05 -0.45
v -0.45 -0.05 -0.55
v -0.45 0.05 0.55
v -0.45 0.05 0.45
v -0.45 0.05 -0.45
v -0.45 0.05 -0.55
v -0.45 0.15 0.55
v -0.45 0.15 0.45
v -0.45 0.15 -0.45
v -0.45 0.15 -0.55
v -0.45 0.25 0.45
v -0.45 0.25 0.35
v -0.45 0.25 -0.35
v -0.45 0.25 -0.45
v -0.45 0.35 0.45
v -0.45 0.35 0.35
v -0.45 0.35 0.25
v -0.45 0.35 -0.25
v -0.45 0.35 -0.35
v -0.45 0.35 -0.45
v -0.45 0.45 0.35
v -0.45 0.45 0.25
v -0.45 0.45 0.15
v -0.45 0.45 0.05
v -0.45 0.45 -0.05
v -0.45 0.45 -0.15
v -0.45 0.45 -0.25
v -0.45 0.45 -0.35
v -0.45 0.55 0.15
v -0.45 0.55 0.05
v -0.45 0.55 -0.05
v -0.45 0.55 -0.15
v -0.25 -0.55 0.25
v -0.25 -0.55 0.15
v -0.25 -0.55 -0.15
v -0.25 -0.55 -0.25
v -0.25 -0.45 0.25
v -0.25 -0.45 0.15
v -0.25 -0.45 -0.15
v -0.25 -0.45 -0.25
v -0.25 -0.25 0.55
v -0.25 -0.25 0.45
v -0.25 -0.25 -0.45
v -0.25 -0.25 -0.55
v -0.25 -0.15 0.55
v -0.25 -0.15 0.45
v -0.25 -0.15 -0.45
v -0.25 -0.15 -0.55
v -0.25 0.15 0.55
v -0.25 0.15 0.45
v -0.25 0.15 -0.45
v -0.25 0.15 -0.55
v -0.25 0.25 0.55
v -0.25 0.25 0.45
v -0.25 0.25 -0.45
v -0.25 0.25 -0.55
v -0.25 0.45 0.25
v -0.25 0.45 0.15
v -0.25 0.45 -0.15
v -0.25 0.45 -0.25
v -0.25 0.55 0.25
v -0.25 0.55 0.15
v -0.25 0.55 -0.15
v -0.25 0.55 -0.25
v 0.25 -0.55 0.25
v 0.25 -0.55 0.15
v 0.25 -0.55 -0.15
v 0.25 -0.55 -0.25
v 0.25 -0.45 0.25
v 0.25 -0.45 0.15
v 0.25 -0.45 -0.15
v 0.25 -0.45 -0.25
v 0.25 -0.25 0.55
v 0.25 -0.25 0.45
v 0.25 -0.25 -0.45
v 0.25 -0.25 -0.55
v 0.25 -0.15 0.55
v 0.25 -0.15 0.45
v 0.25 -0.15 -0.45
v 0.25 -0.15 -0.55
v 0.25 0.15 0.55
v 0.25 0.15 0.45
v 0.25 0.15 -0.45
v 0.25 0.15 -0.55
v 0.25 0.25 0.55
v 0.25 0.25 0.45
v 0.25 0.25 -0.45
v 0.25 0.25 -0.55
v 0.25 0.45 0.25
v 0.25 0.45 0.15
v 0.25 0.45 -0.15
v 0.25 0.45 -0.25
v 0.25 0.55 0.25
v 0.25 0.55 0.15
v 0.25 0.55 -0.15
v 0.25 0.55 -0.25
v 0.45 -0.55 0.15
v 0.45 -0.55 0.05
v 0.45 -0.55 -0.05
v 0.45 -0.55 -0.15
v 0.45 -0.45 0.35
v 0.45 -0.45 0.25
v 0.45 -0.45 0.15
v 0.45 -0.45 0.05
v 0.45 -0.45 -0.05
v 0.45 -0.45 -0.15
v 0.45 -0.45 -0.25
v 0.45 -0.45 -0.35
v 0.45 -0.35 0.45
v 0.45 -0.35 0.35
v 0.45 -0.35 0.25
v 0.45 -0.35 -0.25
v 0.45 -0.35 -0.35
v 0.45 -0.35 -0.45
v 0.45 -0.25 0.45
v 0.45 -0.25 0.35
v 0.45 -0.25 -0.35
v 0.45 -0.25 -0.45
v 0.45 -0.15 0.55
v 0.45 -0.15 0.45
v 0.45 -0.15 -0.45
v 0.45 -0.15 -0.55
v 0.45 -0.05 -0.45
v 0.45 -0.05 -0.55
v 0.45 0.05 -0.45
v 0.45 0.15 0.55
v 0.45 0.15 0.45
v 0.45 0.15 -0.45
v 0.45 0.15 -0.55
v 0.45 0.25 0.45
v 0.45 0.25 0.35
v 0.45 0.25 -0.35
v 0.45 0.25 -0.45
v 0.45 0.35 0.45
v 0.45 0.35 0.35
v 0.45 0.35 0.25
v 0.45 0.35 -0.25
v 0.45 0.35 -0.35
v 0.45 0.35 -0.45
v 0.45 0.45 0.35
v 0.45 0.45 0.25
v 0.45 0.45 0.15
v 0.45 0.45 -0.05
v 0.45 0.45 -0.15
v 0.45 0.45 -0.25
v 0.45 0.45 -0.35
v 0.45 0.55 0.15
v 0.45 0.55 -0.05
v 0.45 0.55 -0.15
v 0.65 -0.45 0.25
v 0.65 -0.45 0.15
v 0.65 -0.45 -0.15
v 0.65 -0.45 -0.25
v 0.65 -0.35 0.25
v 0.65 -0.35 0.15
v 0.65 -0.35 -0.15
v 0.65 -0.35 -0.25
v 0.65 -0.25 0.45
v 0.65 -0.25 0.35
v 0.65 -0.25 -0.35
v 0.65 -0.25 -0.45
v 0.65 -0.15 0.45
v 0.65 -0.15 0.35
v 0.65 -0.15 -0.35
v 0.65 -0.15 -0.45
v 0.65 0.15 0.45
v 0.65 0.15 0.35
v 0.65 0.15 -0.35
v 0.65 0.15 -0.45
v 0.65 0.25 0.45
v 0.65 0.25 0.35
v 0.65 0.25 -0.35
v 0.65 0.25 -0.45
v 0.65 0.35 0.25
v 0.65 0.35 0.15
v 0.65 0.35 -0.15
v 0.65 0.35 -0.25
v 0.65 0.45 0.25
v 0.65 0.45 0.15
v 0.65 0.45 -0.15
v 0.65 0.45 -0.25
v 0.75 -0.45 0.15
v 0.75 -0.45 -0.05
v 0.75 -0.45 -0.15
v 0.75 -0.35 0.35
v 0.75 -0.35 0.25
v 0.75 -0.35 0.15
v 0.75 -0.35 0.05
v 0.75 -0.35 -0.05
v 0.75 -0.35 -0.15
v 0.75 -0.35 -0.25
v 0.75 -0.35 -0.35
v 0.75 -0.25 0.35
v 0.75 -0.25 0.25
v 0.75 -0.25 -0.25
v 0.75 -0.25 -0.35
v 0.75 -0.15 0.45
v 0.75 -0.15 0.35
v 0.75 -0.15 -0.35
v 0.75 -0.15 -0.45
v 0.75 -0.05 0.45
v 0.75 -0.05 0.35
v 0.75 -0.05 -0.35
v 0.75 -0.05 -0.45
v 0.75 0.05 0.35
v 0.75 0.15 0.45
v 0.75 0.15 0.35
v 0.75 0.15 -0.35
v 0.75 0.15 -0.45
v 0.75 0.25 0.35
v 0.75 0.25 0.25
v 0.75 0.25 -0.25
v 0.75 0.25 -0.35
v 0.75 0.35 0.35
v 0.75 0.35 0.25
v 0.75 0.35 0.15
v 0.75 0.35 -0.05
v 0.75 0.35 -0.15
v 0.75 0.35 -0.25
v 0.75 0.35 -0.35
v 0.75 0.45 0.15
v 0.75 0.45 -0.05
v 0.75 0.45 -0.15
v 0.85 -0.35 0.25
v 0.85 -0.35 0.15
v 0.85 -0.35 -0.15
v 0.85 -0.35 -0.25
v 0.85 -0.25 0.35
v 0.85 -0.25 0.25
v 0.85 -0.25 0.15
v 0.85 -0.25 -0.15
v 0.85 -0.25 -0.25
v 0.85 -0.25 -0.35
v 0.85 -0.15 0.35
v 0.85 -0.15 0.25
v 0.85 -0.15 -0.25
v 0.85 -0.15 -0.35
v 0.85 0.15 0.35
v 0.85 0.15 0.25
v 0.85 0.15 -0.25
v 0.85 0.15 -0.35
v 0.85 0.25 0.35
v 0.85 0.25 0.25
v 0.85 0.25 0.15
v 0.85 0.25 -0.15
v 0.85 0.25 -0.25
v 0.85 0.25 -0.35
v 0.85 0.35 0.25
v 0.85 0.35 0.15
v 0.85 0.35 -0.15
v 0.85 0.35 -0.25
v 0.95 -0.35 0.15
v 0.95 -0.35 0.05
v 0.95 -0.35 -0.15
v 0.95 -0.25 0.25
v 0.95 -0.25 0.15
v 0.95 -0.25 0.05
v 0.95 -0.25 -0.05
v 0.95 -0.25 -0.15
v 0.95 -0.25 -0.25
v 0.95 -0.15 0.35
v 0.95 -0.15 0.25
v 0.95 -0.15 0.15
v 0.95 -0.15 -0.15
v 0.95 -0.15 -0.25
v 0.95 -0.15 -0.35
v 0.95 -0.05 -0.25
v 0.95 -0.05 -0.35
v 0.95 0.05 0.35
v 0.95 0.05 0.25
v 0.95 0.05 -0.25
v 0.95 0.15 0.35
v 0.95 0.15 0.25
v 0.95 0.15 0.15
v 0.95 0.15 -0.15
v 0.95 0.15 -0.25
v 0.95 0.15 -0.35
v 0.95 0.25 0.25
v 0.95 0.25 0.15
v 0.95 0.25 0.05
v 0.95 0.25 -0.05
v 0.95 0.25 -0.15
v 0.95 0.25 -0.25
v 0.95 0.35 0.15
v 0.95 0.35 0.05
v 0.95 0.35 -0.15
v 1.05 -0.25 0.15
v 1.05 -0.25 -0.05
v 1.05 -0.25 -0.15
v 1.05 -0.15 0.25
v 1.05 -0.15 0.15
v 1.05 -0.15 0.05
v 1.05 -0.15 -0.05
v 1.05 -0.15 -0.15
v 1.05 -0.15 -0.25
v 1.05 -0.05 -0.15
v 1.05 -0.05 -0.25
v 1.05 0.05 0.25
v 1.05 0.05 0.15
v 1.05 0.05 -0.15
v 1.05 0.05 -0.25
v 1.05 0.15 0.25
v 1.05 0.15 0.15
v 1.05 0.15 0.05
v 1.05 0.15 -0.05
v 1.05 0.15 -0.15
v 1.05 0.15 -0.25
v 1.05 0.25 0.15
v 1.05 0.25 0.05
v 1.05 0.25 -0.05
v 1.05 0.25 -0.15
v 1.15 -0.15 0.15
v 1.15 -0.15 0.05
v 1.15 -0.15 -0.05
v 1.15 -0.15 -0.15
v 1.15 -0.05 0.05
v 1.15 -0.05 -0.05
v 1.15 -0.05 -0.15
v 1.15 0.05 0.15
v 1.15 0.05 -0.05
v 1.15 0.05 -0.15
v 1.15 0.15 0.15
v 1.15 0.15 -0.05
v 1.15 0.15 -0.15
v -0.45 -0.15 0.55
v -0.45 -0.05 0.55
v -0.45 0.05 0.55
v -0.45 0.15 0.55
v -0.35 -0.15 0.55
v -0.35 -0.05 0.55
v -0.35 0.05 0.55
v -0.35 0.15 0.55
v -0.25 -0.25 0.55
v -0.25 -0.15 0.55
v -0.25 -0.05 0.55
v -0.25 0.05 0.55
v -0.25 0.15 0.55
v -0.25 0.25 0.55
v -0.15 0.05 0.55
v -0.15 0.15 0.55
v -0.05 -0.15 0.55
v -0.05 0.05 0.55
v -0.05 0.15 0.55
v -0.05 0.25 0.55
v 0.0500001 -0.25 0.55
v 0.0500001 -0.05 0.55
v 0.0500001 0.05 0.55
v 0.0500001 0.25 0.55
v 0.15 -0.15 0.55
v 0.15 -0.05 0.55
v 0.15 0.05 0.55
v 0.25 -0.25 0.55
v 0.25 -0.15 0.55
v 0.25 -0.05 0.55
v 0.25 0.05 0.55
v 0.25 0.15 0.55
v 0.25 0.25 0.55
v 0.35 -0.05 0.55
v 0.35 0.05 0.55
v 0.45 -0.15 0.55
v 0.45 0.15 0.55
v -0.75 -0.15 0.45
v -0.75 -0.05 0.45
v -0.75 0.15 0.45
v -0.65 -0.25 0.45
v -0.65 -0.15 0.45
v -0.65 0.15 0.45
v -0.65 0.25 0.45
v -0.55 0.05 0.45
v -0.55 0.25 0.45
v -0.45 -0.35 0.45
v -0.45 -0.25 0.45
v -0.45 -0.15 0.45
v -0.45 -0.05 0.45
v -0.45 0.05 0.45
v -0.45 0.15 0.45
v -0.45 0.25 0.45
v -0.45 0.35 0.45
v -0.35 -0.35 0.45
v -0.35 -0.25 0.45
v -0.35 -0.15 0.45
v -0.35 0.15 0.45
v -0.35 0.25 0.45
v -0.25 -0.25 0.45
v -0.25 -0.15 0.45
v -0.25 0.15 0.45
v -0.25 0.25 0.45
v -0.25 0.35 0.45
v -0.05 0.25 0.45
v -0.05 0.35 0.45
v 0.0500001 -0.35 0.45
v 0.0500001 -0.25 0.45
v 0.0500001 0.25 0.45
v 0.15 0.25 0.45
v 0.15 0.35 0.45
v 0.25 -0.35 0.45
v 0.25 -0.25 0.45
v 0.25 -0.15 0.45
v 0.25 0.15 0.45
v 0.25 0.25 0.45
v 0.25 0.35 0.45
v 0.35 -0.35 0.45
v 0.35 -0.25 0.45
v 0.35 -0.15 0.45
v 0.45 -0.35 0.45
v 0.45 -0.25 0.45
v 0.45 -0.15 0.45
v 0.45 0.15 0.45
v 0.45 0.25 0.45
v 0.45 0.35 0.45
v 0.55 -0.15 0.45
v 0.55 0.15 0.45
v 0.65 -0.25 0.45
v 0.65 -0.15 0.45
v 0.65 -0.05 0.45
v 0.65 0.15 0.45
v 0.65 0.25 0.45
v 0.75 -0.15 0.45
v 0.75 -0.05 0.45
v 0.75 0.15 0.45
v -0.95 -0.15 0.35
v -0.95 0.15 0.35
v -0.85 -0.25 0.35
v -0.85 -0.15 0.35
v -0.85 0.05 0.35
v -0.85 0.15 0.35
v -0.85 0.25 0.35
v -0.75 -0.35 0.35
v -0.75 -0.25 0.35
v -0.75 -0.15 0.35
v -0.75 -0.05 0.35
v -0.75 0.05 0.35
v -0.75 0.15 0.35
v -0.75 0.25 0.35
v -0.75 0.35 0.35
v -0.65 -0.35 0.35
v -0.65 -0.25 0.35
v -0.65 -0.15 0.35
v -0.65 0.15 0.35
v -0.65 0.25 0.35
v -0.55 0.25 0.35
v -0.45 -0.45 0.35
v -0.45 -0.35 0.35
v -0.45 -0.25 0.35
v -0.45 0.25 0.35
v -0.45 0.35 0.35
v -0.45 0.45 0.35
v -0.35 -0.45 0.35
v -0.35 -0.35 0.35
v -0.35 0.35 0.35
v -0.35 0.45 0.35
v -0.25 -0.45 0.35
v -0.25 -0.35 0.35
v -0.25 0.35 0.35
v -0.15 0.35 0.35
v -0.15 0.45 0.35
v -0.05 -0.45 0.35
v -0.05 -0.35 0.35
v -0.05 0.35 0.35
v 0.0500001 -0.35 0.35
v 0.0500001 0.35 0.35
v 0.0500001 0.45 0.35
v 0.15 -0.45 0.35
v 0.15 -0.35 0.35
v 0.15 0.35 0.35
v 0.25 -0.35 0.35
v 0.25 0.35 0.35
v 0.35 -0.45 0.35
v 0.35 -0.35 0.35
v 0.45 -0.45 0.35
v 0.45 -0.35 0.35
v 0.45 -0.25 0.35
v 0.45 0.25 0.35
v 0.45 0.35 0.35
v 0.45 0.45 0.35
v 0.55 -0.35 0.35
v 0.55 -0.25 0.35
v 0.65 -0.35 0.35
v 0.65 -0.25 0.35
v 0.65 -0.15 0.35
v 0.65 0.15 0.35
v 0.65 0.25 0.35
v 0.75 -0.35 0.35
v 0.75 -0.25 0.35
v 0.75 -0.15 0.35
v 0.75 -0.05 0.35
v 0.75 0.05 0.35
v 0.75 0.15 0.35
v 0.75 0.25 0.35
v 0.75 0.35 0.35
v 0.85 -0.25 0.35
v 0.85 -0.15 0.35
v 0.85 0.15 0.35
v 0.85 0.25 0.35
v 0.95 -0.15 0.35
v 0.95 0.05 0.35
v 0.95 0.15 0.35
v -1.05 -0.15 0.25
v -1.05 0.05 0.25
v -1.05 0.15 0.25
v -0.95 -0.25 0.25
v -0.95 -0.15 0.25
v -0.95 0.05 0.25
v -0.95 0.15 0.25
v -0.95 0.25 0.25
v -0.85 -0.35 0.25
v -0.85 -0.25 0.25
v -0.85 -0.15 0.25
v -0.85 0.15 0.25
v -0.85 0.25 0.25
v -0.85 0.35 0.25
v -0.75 -0.35 0.25
v -0.75 -0.25 0.25
v -0.75 0.25 0.25
v -0.75 0.35 0.25
v -0.65 -0.45 0.25
v -0.65 -0.35 0.25
v -0.65 0.35 0.25
v -0.65 0.45 0.25
v -0.55 0.35 0.25
v -0.55 0.45 0.25
v -0.45 -0.45 0.25
v -0.45 -0.35 0.25
v -0.45 0.35 0.25
v -0.45 0.45 0.25
v -0.25 -0.55 0.25
v -0.25 -0.45 0.25
v -0.25 0.45 0.25
v -0.25 0.55 0.25
v -0.15 -0.55 0.25
v -0.15 -0.45 0.25
v -0.15 0.45 0.25
v -0.15 0.55 0.25
v -0.05 -0.45 0.25
v 0.0500001 0.45 0.25
v 0.0500001 0.55 0.25
v 0.15 -0.45 0.25
v 0.15 0.45 0.25
v 0.15 0.55 0.25
v 0.25 -0.55 0.25
v 0.25 -0.45 0.25
v 0.25 0.45 0.25
v 0.25 0.55 0.25
v 0.45 -0.45 0.25
v 0.45 -0.35 0.25
v 0.45 0.35 0.25
v 0.45 0.45 0.25
v 0.55 -0.45 0.25
v 0.55 -0.35 0.25
v 0.55 0.35 0.25
v 0.55 0.45 0.25
v 0.65 -0.45 0.25
v 0.65 -0.35 0.25
v 0.65 0.35 0.25
v 0.65 0.45 0.25
v 0.75 -0.35 0.25
v 0.75 -0.25 0.25
v 0.75 0.25 0.25
v 0.75 0.35 0.25
v 0.85 -0.35 0.25
v 0.85 -0.25 0.25
v 0.85 -0.15 0.25
v 0.85 0.15 0.25
v 0.85 0.25 0.25
v 0.85 0.35 0.25
v 0.95 -0.25 0.25
v 0.95 -0.15 0.25
v 0.95 0.05 0.25
v 0.95 0.15 0.25
v 0.95 0.25 0.25
v 1.05 -0.15 0.25
v 1.05 0.05 0.25
v 1.05 0.15 0.25
v -1.15 -0.15 0.15
v -1.15 0.05 0.15
v -1.15 0.15 0.15
v -1.05 -0.25 0.15
v -1.05 -0.15 0.15
v -1.05 0.05 0.15
v -1.05 0.15 0.15
v -1.05 0.25 0.15
v -0.95 -0.35 0.15
v -0.95 -0.25 0.15
v -0.95 -0.15 0.15
v -0.95 0.15 0.15
v -0.95 0.25 0.15
v -0.95 0.35 0.15
v -0.85 -0.35 0.15
v -0.85 -0.25 0.15
v -0.85 0.25 0.15
v -0.85 0.35 0.15
v -0.75 -0.45 0.15
v -0.75 -0.35 0.15
v -0.75 0.35 0.15
v -0.75 0.45 0.15
v -0.65 -0.45 0.15
v -0.65 -0.35 0.15
v -0.65 0.35 0.15
v -0.65 0.45 0.15
v -0.45 -0.55 0.15
v -0.45 -0.45 0.15
v -0.45 0.45 0.15
v -0.45 0.55 0.15
v -0.35 -0.55 0.15
v -0.35 -0.45 0.15
v -0.25 -0.55 0.15
v -0.25 -0.45 0.15
v -0.25 0.45 0.15
v -0.25 0.55 0.15
v 0.25 -0.55 0.15
v 0.25 -0.45 0.15
v 0.25 0.45 0.15
v 0.25 0.55 0.15
v 0.35 -0.45 0.15
v 0.35 0.45 0.15
v 0.35 0.55 0.15
v 0.45 -0.55 0.15
v 0.45 -0.45 0.15
v 0.45 0.45 0.15
v 0.45 0.55 0.15
v 0.65 -0.45 0.15
v 0.65 -0.35 0.15
v 0.65 0.35 0.15
v 0.65 0.45 0.15
v 0.75 -0.45 0.15
v 0.75 -0.35 0.15
v 0.75 0.35 0.15
v 0.75 0.45 0.15
v 0.85 -0.35 0.15
v 0.85 -0.25 0.15
v 0.85 0.25 0.15
v 0.85 0.35 0.15
v 0.95 -0.35 0.15
v 0.95 -0.25 0.15
v 0.95 -0.15 0.15
v 0.95 0.15 0.15
v 0.95 0.25 0.15
v 0.95 0.35 0.15
v 1.05 -0.25 0.15
v 1.05 -0.15 0.15
v 1.05 0.05 0.15
v 1.05 0.15 0.15
v 1.05 0.25 0.15
v 1.15 -0.15 0.15
v 1.15 0.05 0.15
v 1.15 0.15 0.15
v -1.15 -0.15 -0.15
v -1.15 -0.05 -0.15
v -1.15 0.05 -0.15
v -1.15 0.15 -0.15
v -1.05 -0.25 -0.15
v -1.05 -0.15 -0.15
v -1.05 -0.05 -0.15
v -1.05 0.05 -0.15
v -1.05 0.15 -0.15
v -1.05 0.25 -0.15
v -0.95 -0.35 -0.15
v -0.95 -0.25 -0.15
v -0.95 -0.15 -0.15
v -0.95 0.15 -0.15
v -0.95 0.25 -0.15
v -0.95 0.35 -0.15
v -0.85 -0.35 -0.15
v -0.85 -0.25 -0.15
v -0.85 0.25 -0.15
v -0.85 0.35 -0.15
v -0.75 -0.45 -0.15
v -0.75 -0.35 -0.15
v -0.75 0.35 -0.15
v -0.75 0.45 -0.15
v -0.65 -0.45 -0.15
v -0.65 -0.35 -0.15
v -0.65 0.35 -0.15
v -0.65 0.45 -0.15
v -0.45 -0.55 -0.15
v -0.45 -0.45 -0.15
v -0.45 0.45 -0.15
v -0.45 0.55 -0.15
v -0.35 -0.45 -0.15
v -0.35 0.45 -0.15
v -0.35 0.55 -0.15
v -0.25 -0.55 -0.15
v -0.25 -0.45 -0.15
v -0.25 0.45 -0.15
v -0.25 0.55 -0.15
v 0.25 -0.55 -0.15
v 0.25 -0.45 -0.15
v 0.25 0.45 -0.15
v 0.25 0.55 -0.15
v 0.35 -0.45 -0.15
v 0.45 -0.55 -0.15
v 0.45 -0.45 -0.15
v 0.45 0.45 -0.15
v 0.45 0.55 -0.15
v 0.65 -0.45 -0.15
v 0.65 -0.35 -0.15
v 0.65 0.35 -0.15
v 0.65 0.45 -0.15
v 0.75 -0.45 -0.15
v 0.75 -0.35 -0.15
v 0.75 0.35 -0.15
v 0.75 0.45 -0.15
v 0.85 -0.35 -0.15
v 0.85 -0.25 -0.15
v 0.85 0.25 -0.15
v 0.85 0.35 -0.15
v 0.95 -0.35 -0.15
v 0.95 -0.25 -0.15
v 0.95 -0.15 -0.15
v 0.95 0.15 -0.15
v 0.95 0.25 -0.15
v 0.95 0.35 -0.15
v 1.05 -0.25 -0.15
v 1.05 -0.15 -0.15
v 1.05 -0.05 -0.15
v 1.05 0.05 -0.15
v 1.05 0.15 -0.15
v 1.05 0.25 -0.15
v 1.15 -0.15 -0.15
v 1.15 -0.05 -0.15
v 1.15 0.05 -0.15
v 1.15 0.15 -0.15
v -1.05 -0.15 -0.25
v -1.05 0.15 -0.25
v -0.95 -0.25 -0.25
v -0.95 -0.15 -0.25
v -0.95 -0.05 -0.25
v -0.95 0.15 -0.25
v -0.95 0.25 -0.25
v -0.85 -0.35 -0.25
v -0.85 -0.25 -0.25
v -0.85 -0.15 -0.25
v -0.85 0.15 -0.25
v -0.85 0.25 -0.25
v -0.85 0.35 -0.25
v -0.75 -0.35 -0.25
v -0.75 -0.25 -0.25
v -0.75 0.25 -0.25
v -0.75 0.35 -0.25
v -0.65 -0.45 -0.25
v -0.65 -0.35 -0.25
v -0.65 0.35 -0.25
v -0.65 0.45 -0.25
v -0.55 -0.45 -0.25
v -0.55 -0.35 -0.25
v -0.55 0.35 -0.25
v -0.55 0.45 -0.25
v -0.45 -0.45 -0.25
v -0.45 -0.35 -0.25
v -0.45 0.35 -0.25
v -0.45 0.45 -0.25
v -0.25 -0.55 -0.25
v -0.25 -0.45 -0.25
v -0.25 0.45 -0.25
v -0.25 0.55 -0.25
v -0.15 0.45 -0.25
v -0.15 0.55 -0.25
v -0.05 -0.45 -0.25
v -0.05 0.45 -0.25
v 0.15 -0.55 -0.25
v 0.15 -0.45 -0.25
v 0.15 0.45 -0.25
v 0.25 -0.55 -0.25
v 0.25 -0.45 -0.25
v 0.25 0.45 -0.25
v 0.25 0.55 -0.25
v 0.45 -0.45 -0.25
v 0.45 -0.35 -0.25
v 0.45 0.35 -0.25
v 0.45 0.45 -0.25
v 0.55 0.35 -0.25
v 0.55 0.45 -0.25
v 0.65 -0.45 -0.25
v 0.65 -0.35 -0.25
v 0.65 0.35 -0.25
v 0.65 0.45 -0.25
v 0.75 -0.35 -0.25
v 0.75 -0.25 -0.25
v 0.75 0.25 -0.25
v 0.75 0.35 -0.25
v 0.85 -0.35 -0.25
v 0.85 -0.25 -0.25
v 0.85 -0.15 -0.25
v 0.85 0.15 -0.25
v 0.85 0.25 -0.25
v 0.85 0.35 -0.25
v 0.95 -0.25 -0.25
v 0.95 -0.15 -0.25
v 0.95 -0.05 -0.25
v 0.95 0.05 -0.25
v 0.95 0.15 -0.25
v 0.95 0.25 -0.25
v 1.05 -0.15 -0.25
v 1.05 -0.05 -0.25
v 1.05 0.05 -0.25
v 1.05 0.15 -0.25
v -0.95 -0.15 -0.35
v -0.95 -0.05 -0.35
v -0.95 0.15 -0.35
v -0.85 -0.25 -0.35
v -0.85 -0.15 -0.35
v -0.85 -0.05 -0.35
v -0.85 0.05 -0.35
v -0.85 0.15 -0.35
v -0.85 0.25 -0.35
v -0.75 -0.35 -0.35
v -0.75 -0.25 -0.35
v -0.75 -0.15 -0.35
v -0.75 -0.05 -0.35
v -0.75 0.05 -0.35
v -0.75 0.15 -0.35
v -0.75 0.25 -0.35
v -0.75 0.35 -0.35
v -0.65 -0.25 -0.35
v -0.65 -0.15 -0.35
v -0.65 0.15 -0.35
v -0.65 0.25 -0.35
v -0.55 -0.25 -0.35
v -0.55 0.25 -0.35
v -0.55 0.35 -0.35
v -0.45 -0.45 -0.35
v -0.45 -0.35 -0.35
v -0.45 -0.25 -0.35
v -0.45 0.25 -0.35
v -0.45 0.35 -0.35
v -0.45 0.45 -0.35
v -0.35 0.35 -0.35
v -0.35 0.45 -0.35
v -0.25 -0.45 -0.35
v -0.25 -0.35 -0.35
v -0.05 -0.45 -0.35
v -0.05 -0.35 -0.35
v -0.05 0.35 -0.35
v -0.05 0.45 -0.35
v 0.15 -0.45 -0.35
v 0.15 -0.35 -0.35
v 0.15 0.35 -0.35
v 0.15 0.45 -0.35
v 0.25 -0.35 -0.35
v 0.25 0.35 -0.35
v 0.35 -0.45 -0.35
v 0.35 -0.35 -0.35
v 0.35 0.35 -0.35
v 0.35 0.45 -0.35
v 0.45 -0.45 -0.35
v 0.45 -0.35 -0.35
v 0.45 -0.25 -0.35
v 0.45 0.25 -0.35
v 0.45 0.35 -0.35
v 0.45 0.45 -0.35
v 0.55 0.25 -0.35
v 0.65 -0.25 -0.35
v 0.65 -0.15 -0.35
v 0.65 0.15 -0.35
v 0.65 0.25 -0.35
v 0.75 -0.35 -0.35
v 0.75 -0.25 -0.35
v 0.75 -0.15 -0.35
v 0.75 -0.05 -0.35
v 0.75 0.15 -0.35
v 0.75 0.25 -0.35
v 0.75 0.35 -0.35
v 0.85 -0.25 -0.35
v 0.85 -0.15 -0.35
v 0.85 -0.05 -0.35
v 0.85 0.15 -0.35
v 0.85 0.25 -0.35
v 0.95 -0.15 -0.35
v 0.95 -0.05 -0.35
v 0.95 0.15 -0.35
v -0.75 -0.15 -0.45
v -0.75 -0.05 -0.45
v -0.75 0.05 -0.45
v -0.75 0.15 -0.45
v -0.65 -0.25 -0.45
v -0.65 -0.15 -0.45
v -0.65 -0.05 -0.45
v -0.65 0.05 -0.45
v -0.65 0.15 -0.45
v -0.65 0.25 -0.45
v -0.55 -0.25 -0.45
v -0.55 -0.15 -0.45
v -0.55 -0.05 -0.45
v -0.55 0.05 -0.45
v -0.55 0.15 -0.45
v -0.55 0.25 -0.45
v -0.45 -0.35 -0.45
v -0.45 -0.25 -0.45
v -0.45 -0.15 -0.45
v -0.45 -0.05 -0.45
v -0.45 0.05 -0.45
v -0.45 0.15 -0.45
v -0.45 0.25 -0.45
v -0.45 0.35 -0.45
v -0.35 0.15 -0.45
v -0.35 0.25 -0.45
v -0.25 -0.25 -0.45
v -0.25 -0.15 -0.45
v -0.25 0.15 -0.45
v -0.25 0.25 -0.45
v -0.05 -0.35 -0.45
v -0.05 -0.25 -0.45
v -0.05 0.25 -0.45
v 0.0500001 -0.25 -0.45
v 0.0500001 0.25 -0.45
v 0.15 -0.35 -0.45
v 0.15 -0.25 -0.45
v 0.15 0.25 -0.45
v 0.25 -0.35 -0.45
v 0.25 -0.25 -0.45
v 0.25 -0.15 -0.45
v 0.25 0.15 -0.45
v 0.25 0.25 -0.45
v 0.25 0.35 -0.45
v 0.35 -0.25 -0.45
v 0.35 -0.15 -0.45
v 0.35 0.15 -0.45
v 0.35 0.25 -0.45
v 0.35 0.35 -0.45
v 0.45 -0.35 -0.45
v 0.45 -0.25 -0.45
v 0.45 -0.15 -0.45
v 0.45 -0.05 -0.45
v 0.45 0.05 -0.45
v 0.45 0.15 -0.45
v 0.45 0.25 -0.45
v 0.45 0.35 -0.45
v 0.55 0.05 -0.45
v 0.55 0.25 -0.45
v 0.65 -0.25 -0.45
v 0.65 -0.15 -0.45
v 0.65 -0.05 -0.45
v 0.65 0.15 -0.45
v 0.65 0.25 -0.45
v 0.75 -0.15 -0.45
v 0.75 -0.05 -0.45
v 0.75 0.15 -0.45
v -0.45 -0.15 -0.55
v -0.45 -0.05 -0.55
v -0.45 0.05 -0.55
v -0.45 0.15 -0.55
v -0.35 -0.05 -0.55
v -0.35 0.05 -0.55
v -0.35 0.15 -0.55
v -0.25 -0.25 -0.55
v -0.25 -0.15 -0.55
v -0.25 0.15 -0.55
v -0.25 0.25 -0.55
v -0.15 -0.15 -0.55
v -0.15 0.05 -0.55
v -0.15 0.15 -0.55
v -0.05 -0.25 -0.55
v -0.05 -0.15 -0.55
v -0.05 -0.05 -0.55
v -0.05 0.05 -0.55
v -0.05 0.15 -0.55
v -0.05 0.25 -0.55
v 0.0500001 -0.25 -0.55
v 0.0500001 -0.15 -0.55
v 0.0500001 -0.05 -0.55
v 0.0500001 0.05 -0.55
v 0.0500001 0.15 -0.55
v 0.0500001 0.25 -0.55
v 0.15 -0.15 -0.55
v 0.15 -0.05 -0.55
v 0.15 0.05 -0.55
v 0.15 0.15 -0.55
v 0.15 0.25 -0.55
v 0.25 -0.25 -0.55
v 0.25 -0.15 -0.55
v 0.25 -0.05 -0.55
v 0.25 0.15 -0.55
v 0.25 0.25 -0.55
v 0.35 -0.05 -0.55
v 0.35 0.15 -0.55
v 0.45 -0.15 -0.55
v 0.45 -0.05 -0.55
v 0.45 0.15 -0.55
v -0.25 -0.55 0.25
v -0.15 -0.55 0.25
v 0.25 -0.55 0.25
v -0.45 -0.55 0.15
v -0.35 -0.55 0.15
v -0.25 -0.55 0.15
v -0.05 -0.55 0.15
v 0.15 -0.55 0.15
v 0.25 -0.55 0.15
v 0.45 -0.55 0.15
v -0.25 -0.55 0.05
v -0.15 -0.55 0.05
v -0.05 -0.55 0.05
v 0.0500001 -0.55 0.05
v 0.15 -0.55 0.05
v 0.45 -0.55 0.05
v -0.35 -0.55 -0.05
v -0.25 -0.55 -0.05
v -0.15 -0.55 -0.05
v -0.05 -0.55 -0.05
v 0.15 -0.55 -0.05
v 0.45 -0.55 -0.05
v -0.45 -0.55 -0.15
v -0.25 -0.55 -0.15
v -0.05 -0.55 -0.15
v 0.0500001 -0.55 -0.15
v 0.15 -0.55 -0.15
v 0.25 -0.55 -0.15
v 0.45 -0.55 -0.15
v -0.25 -0.55 -0.25
v 0.15 -0.55 -0.25
v 0.25 -0.55 -0.25
v -0.45 -0.45 0.35
v -0.35 -0.45 0.35
v -0.25 -0.45 0.35
v -0.05 -0.45 0.35
v 0.15 -0.45 0.35
v 0.35 -0.45 0.35
v 0.45 -0.45 0.35
v -0.65 -0.45 0.25
v -0.45 -0.45 0.25
v -0.35 -0.45 0.25
v -0.25 -0.45 0.25
v -0.15 -0.45 0.25
v -0.05 -0.45 0.25
v 0.15 -0.45 0.25
v 0.25 -0.45 0.25
v 0.45 -0.45 0.25
v 0.55 -0.45 0.25
v 0.65 -0.45 0.25
v -0.75 -0.45 0.15
v -0.65 -0.45 0.15
v -0.45 -0.45 0.15
v -0.35 -0.45 0.15
v -0.25 -0.45 0.15
v 0.25 -0.45 0.15
v 0.35 -0.45 0.15
v 0.45 -0.45 0.15
v 0.55 -0.45 0.15
v 0.65 -0.45 0.15
v 0.75 -0.45 0.15
v -0.75 -0.45 0.05
v -0.65 -0.45 0.05
v -0.45 -0.45 0.05
v 0.45 -0.45 0.05
v -0.75 -0.45 -0.05
v -0.65 -0.45 -0.05
v 0.45 -0.45 -0.05
v 0.65 -0.45 -0.05
v 0.75 -0.45 -0.05
v -0.75 -0.45 -0.15
v -0.65 -0.45 -0.15
v -0.55 -0.45 -0.15
v -0.45 -0.45 -0.15
v -0.35 -0.45 -0.15
v -0.25 -0.45 -0.15
v 0.25 -0.45 -0.15
v 0.35 -0.45 -0.15
v 0.45 -0.45 -0.15
v 0.65 -0.45 -0.15
v 0.75 -0.45 -0.15
v -0.65 -0.45 -0.25
v -0.55 -0.45 -0.25
v -0.45 -0.45 -0.25
v -0.35 -0.45 -0.25
v -0.25 -0.45 -0.25
v -0.05 -0.45 -0.25
v 0.15 -0.45 -0.25
v 0.25 -0.45 -0.25
v 0.45 -0.45 -0.25
v 0.65 -0.45 -0.25
v -0.45 -0.45 -0.35
v -0.25 -0.45 -0.35
v -0.05 -0.45 -0.35
v 0.15 -0.45 -0.35
v 0.35 -0.45 -0.35
v 0.45 -0.45 -0.35
v -0.45 -0.35 0.45
v -0.35 -0.35 0.45
v 0.0500001 -0.35 0.45
v 0.25 -0.35 0.45
v 0.35 -0.35 0.45
v 0.45 -0.35 0.45
v -0.75 -0.35 0.35
v -0.65 -0.35 0.35
v -0.45 -0.35 0.35
v -0.35 -0.35 0.35
v -0.25 -0.35 0.35
v -0.05 -0.35 0.35
v 0.0500001 -0.35 0.35
v 0.15 -0.35 0.35
v 0.25 -0.35 0.35
v 0.35 -0.35 0.35
v 0.45 -0.35 0.35
v 0.55 -0.35 0.35
v 0.65 -0.35 0.35
v 0.75 -0.35 0.35
v -0.85 -0.35 0.25
v -0.75 -0.35 0.25
v -0.65 -0.35 0.25
v -0.45 -0.35 0.25
v 0.45 -0.35 0.25
v 0.55 -0.35 0.25
v 0.65 -0.35 0.25
v 0.75 -0.35 0.25
v 0.85 -0.35 0.25
v -0.95 -0.35 0.15
v -0.85 -0.35 0.15
v -0.75 -0.35 0.15
v -0.65 -0.35 0.15
v 0.65 -0.35 0.15
v 0.75 -0.35 0.15
v 0.85 -0.35 0.15
v 0.95 -0.35 0.15
v -0.95 -0.35 0.05
v -0.85 -0.35 0.05
v -0.75 -0.35 0.05
v 0.75 -0.35 0.05
v 0.85 -0.35 0.05
v 0.95 -0.35 0.05
v -0.95 -0.35 -0.05
v -0.85 -0.35 -0.05
v -0.75 -0.35 -0.05
v 0.75 -0.35 -0.05
v -0.95 -0.35 -0.15
v -0.85 -0.35 -0.15
v -0.75 -0.35 -0.15
v -0.65 -0.35 -0.15
v 0.65 -0.35 -0.15
v 0.75 -0.35 -0.15
v 0.85 -0.35 -0.15
v 0.95 -0.35 -0.15
v -0.85 -0.35 -0.25
v -0.75 -0.35 -0.25
v -0.65 -0.35 -0.25
v -0.55 -0.35 -0.25
v -0.45 -0.35 -0.25
v 0.45 -0.35 -0.25
v 0.65 -0.35 -0.25
v 0.75 -0.35 -0.25
v 0.85 -0.35 -0.25
v -0.75 -0.35 -0.35
v -0.45 -0.35 -0.35
v -0.25 -0.35 -0.35
v -0.05 -0.35 -0.35
v 0.15 -0.35 -0.35
v 0.25 -0.35 -0.35
v 0.35 -0.35 -0.35
v 0.45 -0.35 -0.35
v 0.75 -0.35 -0.35
v -0.45 -0.35 -0.45
v -0.05 -0.35 -0.45
v 0.15 -0.35 -0.45
v 0.25 -0.35 -0.45
v 0.45 -0.35 -0.45
v -0.25 -0.25 0.55
v 0.0500001 -0.25 0.55
v 0.25 -0.25 0.55
v -0.65 -0.25 0.45
v -0.45 -0.25 0.45
v -0.25 -0.25 0.45
v 0.0500001 -0.25 0.45
v 0.25 -0.25 0.45
v 0.45 -0.25 0.45
v 0.65 -0.25 0.45
v -0.85 -0.25 0.35
v -0.75 -0.25 0.35
v -0.65 -0.25 0.35
v -0.45 -0.25 0.35
v 0.45 -0.25 0.35
v 0.55 -0.25 0.35
v 0.65 -0.25 0.35
v 0.75 -0.25 0.35
v 0.85 -0.25 0.35
v -0.95 -0.25 0.25
v -0.85 -0.25 0.25
v -0.75 -0.25 0.25
v 0.75 -0.25 0.25
v 0.85 -0.25 0.25
v 0.95 -0.25 0.25
v -1.05 -0.25 0.15
v -0.95 -0.25 0.15
v -0.85 -0.25 0.15
v 0.85 -0.25 0.15
v 0.95 -0.25 0.15
v 1.05 -0.25 0.15
v -1.05 -0.25 0.05
v -0.95 -0.25 0.05
v 0.95 -0.25 0.05
v -0.95 -0.25 -0.05
v 0.95 -0.25 -0.05
v 1.05 -0.25 -0.05
v -1.05 -0.25 -0.15
v -0.95 -0.25 -0.15
v -0.85 -0.25 -0.15
v 0.85 -0.25 -0.15
v 0.95 -0.25 -0.15
v 1.05 -0.25 -0.15
v -0.95 -0.25 -0.25
v -0.85 -0.25 -0.25
v -0.75 -0.25 -0.25
v 0.75 -0.25 -0.25
v 0.85 -0.25 -0.25
v 0.95 -0.25 -0.25
v -0.85 -0.25 -0.35
v -0.75 -0.25 -0.35
v -0.65 -0.25 -0.35
v -0.55 -0.25 -0.35
v -0.45 -0.25 -0.35
v 0.45 -0.25 -0.35
v 0.65 -0.25 -0.35
v 0.75 -0.25 -0.35
v 0.85 -0.25 -0.35
v -0.65 -0.25 -0.45
v -0.55 -0.25 -0.45
v -0.45 -0.25 -0.45
v -0.25 -0.25 -0.45
v -0.05 -0.25 -0.45
v 0.0500001 -0.25 -0.45
v 0.15 -0.25 -0.45
v 0.25 -0.25 -0.45
v 0.45 -0.25 -0.45
v 0.65 -0.25 -0.45
v -0.25 -0.25 -0.55
v -0.05 -0.25 -0.55
v 0.0500001 -0.25 -0.55
v 0.25 -0.25 -0.55
v -0.45 -0.15 0.55
v -0.35 -0.15 0.55
v -0.25 -0.15 0.55
v 0.25 -0.15 0.55
v 0.45 -0.15 0.55
v -0.75 -0.15 0.45
v -0.65 -0.15 0.45
v -0.45 -0.15 0.45
v -0.35 -0.15 0.45
v -0.25 -0.15 0.45
v 0.25 -0.15 0.45
v 0.35 -0.15 0.45
v 0.45 -0.15 0.45
v 0.65 -0.15 0.45
v 0.75 -0.15 0.45
v -0.95 -0.15 0.35
v -0.85 -0.15 0.35
v -0.75 -0.15 0.35
v -0.65 -0.15 0.35
v 0.65 -0.15 0.35
v 0.75 -0.15 0.35
v 0.85 -0.15 0.35
v 0.95 -0.15 0.35
v -1.05 -0.15 0.25
v -0.95 -0.15 0.25
v -0.85 -0.15 0.25
v 0.85 -0.15 0.25
v 0.95 -0.15 0.25
v 1.05 -0.15 0.25
v -1.15 -0.15 0.15
v -1.05 -0.15 0.15
v -0.95 -0.15 0.15
v 0.95 -0.15 0.15
v 1.05 -0.15 0.15
v 1.15 -0.15 0.15
v -1.05 -0.15 0.05
v 1.05 -0.15 0.05
v 1.15 -0.15 0.05
v -1.15 -0.15 -0.05
v -1.05 -0.15 -0.05
v 1.05 -0.15 -0.05
v 1.15 -0.15 -0.05
v -1.15 -0.15 -0.15
v -1.05 -0.15 -0.15
v -0.95 -0.15 -0.15
v 0.95 -0.15 -0.15
v 1.05 -0.15 -0.15
v 1.15 -0.15 -0.15
v -1.05 -0.15 -0.25
v -0.95 -0.15 -0.25
v -0.85 -0.15 -0.25
v 0.85 -0.15 -0.25
v 0.95 -0.15 -0.25
v 1.05 -0.15 -0.25
v -0.95 -0.15 -0.35
v -0.85 -0.15 -0.35
v -0.75 -0.15 -0.35
v -0.65 -0.15 -0.35
v 0.65 -0.15 -0.35
v 0.75 -0.15 -0.35
v 0.85 -0.15 -0.35
v 0.95 -0.15 -0.35
v -0.75 -0.15 -0.45
v -0.65 -0.15 -0.45
v -0.45 -0.15 -0.45
v -0.25 -0.15 -0.45
v 0.25 -0.15 -0.45
v 0.35 -0.15 -0.45
v 0.45 -0.15 -0.45
v 0.65 -0.15 -0.45
v 0.75 -0.15 -0.45
v -0.45 -0.15 -0.55
v -0.25 -0.15 -0.55
v 0.25 -0.15 -0.55
v 0.45 -0.15 -0.55
v -0.45 0.15 0.55
v -0.35 0.15 0.55
v -0.25 0.15 0.55
v 0.25 0.15 0.55
v 0.45 0.15 0.55
v -0.75 0.15 0.45
v -0.65 0.15 0.45
v -0.45 0.15 0.45
v -0.35 0.15 0.45
v -0.25 0.15 0.45
v 0.25 0.15 0.45
v 0.45 0.15 0.45
v 0.65 0.15 0.45
v 0.75 0.15 0.45
v -0.95 0.15 0.35
v -0.85 0.15 0.35
v -0.75 0.15 0.35
v -0.65 0.15 0.35
v 0.65 0.15 0.35
v 0.75 0.15 0.35
v 0.85 0.15 0.35
v 0.95 0.15 0.35
v -1.05 0.15 0.25
v -0.95 0.15 0.25
v -0.85 0.15 0.25
v 0.85 0.15 0.25
v 0.95 0.15 0.25
v 1.05 0.15 0.25
v -1.15 0.15 0.15
v -1.05 0.15 0.15
v -0.95 0.15 0.15
v 0.95 0.15 0.15
v 1.05 0.15 0.15
v 1.15 0.15 0.15
v -1.15 0.15 0.05
v -1.05 0.15 0.05
v 1.05 0.15 0.05
v -1.15 0.15 -0.05
v -1.05 0.15 -0.05
v 1.05 0.15 -0.05
v 1.15 0.15 -0.05
v -1.15 0.15 -0.15
v -1.05 0.15 -0.15
v -0.95 0.15 -0.15
v 0.95 0.15 -0.15
v 1.05 0.15 -0.15
v 1.15 0.15 -0.15
v -1.05 0.15 -0.25
v -0.95 0.15 -0.25
v -0.85 0.15 -0.25
v 0.85 0.15 -0.25
v 0.95 0.15 -0.25
v 1.05 0.15 -0.25
v -0.95 0.15 -0.35
v -0.85 0.15 -0.35
v -0.75 0.15 -0.35
v -0.65 0.15 -0.35
v 0.65 0.15 -0.35
v 0.75 0.15 -0.35
v 0.85 0.15 -0.35
v 0.95 0.15 -0.35
v -0.75 0.15 -0.45
v -0.65 0.15 -0.45
v -0.45 0.15 -0.45
v -0.35 0.15 -0.45
v -0.25 0.15 -0.45
v 0.25 0.15 -0.45
v 0.35 0.15 -0.45
v 0.45 0.15 -0.45
v 0.65 0.15 -0.45
v 0.75 0.15 -0.45
v -0.45 0.15 -0.55
v -0.35 0.15 -0.55
v -0.25 0.15 -0.55
v 0.25 0.15 -0.55
v 0.35 0.15 -0.55
v 0.45 0.15 -0.55
v -0.25 0.25 0.55
v -0.05 0.25 0.55
v 0.0500001 0.25 0.55
v 0.25 0.25 0.55
v -0.65 0.25 0.45
v -0.55 0.25 0.45
v -0.45 0.25 0.45
v -0.25 0.25 0.45
v -0.05 0.25 0.45
v 0.0500001 0.25 0.45
v 0.15 0.25 0.45
v 0.25 0.25 0.45
v 0.45 0.25 0.45
v 0.65 0.25 0.45
v -0.85 0.25 0.35
v -0.75 0.25 0.35
v -0.65 0.25 0.35
v -0.55 0.25 0.35
v -0.45 0.25 0.35
v 0.45 0.25 0.35
v 0.65 0.25 0.35
v 0.75 0.25 0.35
v 0.85 0.25 0.35
v -0.95 0.25 0.25
v -0.85 0.25 0.25
v -0.75 0.25 0.25
v 0.75 0.25 0.25
v 0.85 0.25 0.25
v 0.95 0.25 0.25
v -1.05 0.25 0.15
v -0.95 0.25 0.15
v -0.85 0.25 0.15
v 0.85 0.25 0.15
v 0.95 0.25 0.15
v 1.05 0.25 0.15
v -1.05 0.25 0.05
v -0.95 0.25 0.05
v 0.95 0.25 0.05
v 1.05 0.25 0.05
v 0.95 0.25 -0.05
v 1.05 0.25 -0.05
v -1.05 0.25 -0.15
v -0.95 0.25 -0.15
v -0.85 0.25 -0.15
v 0.85 0.25 -0.15
v 0.95 0.25 -0.15
v 1.05 0.25 -0.15
v -0.95 0.25 -0.25
v -0.85 0.25 -0.25
v -0.75 0.25 -0.25
v 0.75 0.25 -0.25
v 0.85 0.25 -0.25
v 0.95 0.25 -0.25
v -0.85 0.25 -0.35
v -0.75 0.25 -0.35
v -0.65 0.25 -0.35
v -0.55 0.25 -0.35
v -0.45 0.25 -0.35
v 0.45 0.25 -0.35
v 0.55 0.25 -0.35
v 0.65 0.25 -0.35
v 0.75 0.25 -0.35
v 0.85 0.25 -0.35
v -0.65 0.25 -0.45
v -0.55 0.25 -0.45
v -0.45 0.25 -0.45
v -0.25 0.25 -0.45
v -0.05 0.25 -0.45
v 0.0500001 0.25 -0.45
v 0.15 0.25 -0.45
v 0.25 0.25 -0.45
v 0.45 0.25 -0.45
v 0.55 0.25 -0.45
v 0.65 0.25 -0.45
v -0.25 0.25 -0.55
v -0.05 0.25 -0.55
v 0.0500001 0.25 -0.55
v 0.15 0.25 -0.55
v 0.25 0.25 -0.55
v -0.45 0.35 0.45
v -0.25 0.35 0.45
v -0.05 0.35 0.45
v 0.15 0.35 0.45
v 0.25 0.35 0.45
v 0.45 0.35 0.45
v -0.75 0.35 0.35
v -0.45 0.35 0.35
v -0.35 0.35 0.35
v -0.25 0.35 0.35
v -0.15 0.35 0.35
v -0.05 0.35 0.35
v 0.0500001 0.35 0.35
v 0.15 0.35 0.35
v 0.25 0.35 0.35
v 0.45 0.35 0.35
v 0.75 0.35 0.35
v -0.85 0.35 0.25
v -0.75 0.35 0.25
v -0.65 0.35 0.25
v -0.55 0.35 0.25
v -0.45 0.35 0.25
v 0.45 0.35 0.25
v 0.55 0.35 0.25
v 0.65 0.35 0.25
v 0.75 0.35 0.25
v 0.85 0.35 0.25
v -0.95 0.35 0.15
v -0.85 0.35 0.15
v -0.75 0.35 0.15
v -0.65 0.35 0.15
v 0.65 0.35 0.15
v 0.75 0.35 0.15
v 0.85 0.35 0.15
v 0.95 0.35 0.15
v -0.85 0.35 0.05
v -0.75 0.35 0.05
v 0.85 0.35 0.05
v 0.95 0.35 0.05
v -0.85 0.35 -0.05
v -0.75 0.35 -0.05
v 0.75 0.35 -0.05
v -0.95 0.35 -0.15
v -0.85 0.35 -0.15
v -0.75 0.35 -0.15
v -0.65 0.35 -0.15
v 0.65 0.35 -0.15
v 0.75 0.35 -0.15
v 0.85 0.35 -0.15
v 0.95 0.35 -0.15
v -0.85 0.35 -0.25
v -0.75 0.35 -0.25
v -0.65 0.35 -0.25
v -0.55 0.35 -0.25
v -0.45 0.35 -0.25
v 0.45 0.35 -0.25
v 0.55 0.35 -0.25
v 0.65 0.35 -0.25
v 0.75 0.35 -0.25
v 0.85 0.35 -0.25
v -0.75 0.35 -0.35
v -0.55 0.35 -0.35
v -0.45 0.35 -0.35
v -0.35 0.35 -0.35
v -0.05 0.35 -0.35
v 0.15 0.35 -0.35
v 0.25 0.35 -0.35
v 0.35 0.35 -0.35
v 0.45 0.35 -0.35
v 0.75 0.35 -0.35
v -0.45 0.35 -0.45
v 0.25 0.35 -0.45
v 0.35 0.35 -0.45
v 0.45 0.35 -0.45
v -0.45 0.45 0.35
v -0.35 0.45 0.35
v -0.15 0.45 0.35
v 0.0500001 0.45 0.35
v 0.45 0.45 0.35
v -0.65 0.45 0.25
v -0.55 0.45 0.25
v -0.45 0.45 0.25
v -0.35 0.45 0.25
v -0.25 0.45 0.25
v -0.15 0.45 0.25
v 0.0500001 0.45 0.25
v 0.15 0.45 0.25
v 0.25 0.45 0.25
v 0.45 0.45 0.25
v 0.55 0.45 0.25
v 0.65 0.45 0.25
v -0.75 0.45 0.15
v -0.65 0.45 0.15
v -0.45 0.45 0.15
v -0.25 0.45 0.15
v 0.25 0.45 0.15
v 0.35 0.45 0.15
v 0.45 0.45 0.15
v 0.65 0.45 0.15
v 0.75 0.45 0.15
v -0.65 0.45 0.05
v -0.55 0.45 0.05
v -0.45 0.45 0.05
v 0.55 0.45 0.05
v 0.65 0.45 0.05
v -0.75 0.45 -0.05
v -0.65 0.45 -0.05
v -0.45 0.45 -0.05
v 0.45 0.45 -0.05
v 0.65 0.45 -0.05
v 0.75 0.45 -0.05
v -0.75 0.45 -0.15
v -0.65 0.45 -0.15
v -0.55 0.45 -0.15
v -0.45 0.45 -0.15
v -0.35 0.45 -0.15
v -0.25 0.45 -0.15
v 0.25 0.45 -0.15
v 0.45 0.45 -0.15
v 0.55 0.45 -0.15
v 0.65 0.45 -0.15
v 0.75 0.45 -0.15
v -0.65 0.45 -0.25
v -0.55 0.45 -0.25
v -0.45 0.45 -0.25
v -0.25 0.45 -0.25
v -0.15 0.45 -0.25
v -0.05 0.45 -0.25
v 0.15 0.45 -0.25
v 0.25 0.45 -0.25
v 0.35 0.45 -0.25
v 0.45 0.45 -0.25
v 0.55 0.45 -0.25
v 0.65 0.45 -0.25
v -0.45 0.45 -0.35
v -0.35 0.45 -0.35
v -0.05 0.45 -0.35
v 0.15 0.45 -0.35
v 0.35 0.45 -0.35
v 0.45 0.45 -0.35
v -0.25 0.55 0.25
v -0.15 0.55 0.25
v 0.0500001 0.55 0.25
v 0.15 0.55 0.25
v 0.25 0.55 0.25
v -0.45 0.55 0.15
v -0.25 0.55 0.15
v -0.05 0.55 0.15
v 0.0500001 0.55 0.15
v 0.15 0.55 0.15
v 0.25 0.55 0.15
v 0.35 0.55 0.15
v 0.45 0.55 0.15
v -0.45 0.55 0.05
v -0.25 0.55 0.05
v -0.15 0.55 0.05
v -0.05 0.55 0.05
v 0.0500001 0.55 0.05
v 0.15 0.55 0.05
v 0.25 0.55 0.05
v 0.35 0.55 0.05
v -0.45 0.55 -0.05
v -0.35 0.55 -0.05
v -0.25 0.55 -0.05
v -0.15 0.55 -0.05
v -0.05 0.55 -0.05
v 0.25 0.55 -0.05
v 0.45 0.55 -0.05
v -0.45 0.55 -0.15
v -0.35 0.55 -0.15
v -0.25 0.55 -0.15
v -0.05 0.55 -0.15
v 0.15 0.55 -0.15
v 0.25 0.55 -0.15
v 0.45 0.55 -0.15
v -0.25 0.55 -0.25
v -0.15 0.55 -0.25
v 0.25 0.55 -0.25

# faces
f 4/1/1 2/1/1 1/1/1
f 5/2/1 3/2/1 2/2/1
f 5/1/1 2/1/1 4/1/1
f 6/2/1 3/2/1 5/2/1
f 7/1/1 4/1/1 1/1/1
f 8/2/1 5/2/1 4/2/1
f 8/1/1 4/1/1 7/1/1
f 9/1/1 6/1/1 5/1/1
f 9/2/1 5/2/1 8/2/1
f 10/1/1 6/1/1 9/1/1
f 11/2/1 8/2/1 7/2/1
f 12/1/1 9/1/1 8/1/1
f 12/2/1 8/2/1 11/2/1
f 13/2/1 10/2/1 9/2/1
f 13/1/1 9/1/1 12/1/1
f 14/2/1 10/2/1 13/2/1
f 19/1/1 16/1/1 15/1/1
f 20/2/1 17/2/1 16/2/1
f 20/1/1 16/1/1 19/1/1
f 21/2/1 17/2/1 20/2/1
f 22/2/1 17/2/1 21/2/1
f 24/1/1 23/1/1 22/1/1
f 25/2/1 19/2/1 18/2/1
f 26/2/1 19/2/1 25/2/1
f 27/1/1 23/1/1 24/1/1
f 28/1/1 26/1/1 25/1/1
f 29/1/1 26/1/1 28/1/1
f 32/1/1 23/1/1 27/1/1
f 33/1/1 23/1/1 32/1/1
f 34/2/1 30/2/1 29/2/1
f 35/1/1 31/1/1 30/1/1
f 35/2/1 30/2/1 34/2/1
f 35/1/1 32/1/1 31/1/1
f 36/1/1 32/1/1 35/1/1
f 42/2/1 38/2/1 37/2/1
f 43/1/1 39/1/1 38/1/1
f 43/2/1 38/2/1 42/2/1
f 44/2/1 40/2/1 39/2/1
f 44/1/1 39/1/1 43/1/1
f 45/2/1 40/2/1 44/2/1
f 48/2/1 42/2/1 41/2/1
f 49/2/1 42/2/1 48/2/1
f 50/2/1 46/2/1 45/2/1
f 51/2/1 46/2/1 50/2/1
f 53/1/1 52/1/1 51/1/1
f 54/1/1 52/1/1 53/1/1
f 55/2/1 48/2/1 47/2/1
f 56/2/1 55/2/1 47/2/1
f 57/2/1 55/2/1 56/2/1
f 60/2/1 54/2/1 53/2/1
f 61/2/1 54/2/1 60/2/1
f 62/1/1 58/1/1 57/1/1
f 63/1/1 58/1/1 62/1/1
f 65/1/1 60/1/1 59/1/1
f 66/1/1 60/1/1 65/1/1
f 67/1/1 64/1/1 63/1/1
f 67/1/1 65/1/1 64/1/1
f 68/1/1 65/1/1 67/1/1
f 74/2/1 70/2/1 69/2/1
f 75/2/1 70/2/1 74/2/1
f 76/2/1 72/2/1 71/2/1
f 77/2/1 72/2/1 76/2/1
f 79/2/1 74/2/1 73/2/1
f 80/2/1 74/2/1 79/2/1
f 81/1/1 78/1/1 77/1/1
f 82/1/1 78/1/1 81/1/1
f 87/2/1 84/2/1 83/2/1
f 88/2/1 84/2/1 87/2/1
f 91/2/1 86/2/1 85/2/1
f 92/2/1 86/2/1 91/2/1
f 93/1/1 89/1/1 88/1/1
f 94/1/1 89/1/1 93/1/1
f 95/1/1 91/1/1 90/1/1
f 96/1/1 91/1/1 95/1/1
f 103/1/1 98/1/1 97/1/1
f 104/2/1 99/2/1 98/2/1
f 104/1/1 98/1/1 103/1/1
f 105/1/1 100/1/1 99/1/1
f 105/2/1 99/2/1 104/2/1
f 106/1/1 100/1/1 105/1/1
f 109/2/1 102/2/1 101/2/1
f 110/2/1 102/2/1 109/2/1
f 111/2/1 108/2/1 107/2/1
f 112/2/1 108/2/1 111/2/1
f 117/2/1 114/2/1 113/2/1
f 118/2/1 114/2/1 117/2/1
f 119/2/1 116/2/1 115/2/1
f 120/2/1 116/2/1 119/2/1
f 121/1/1 118/1/1 117/1/1
f 122/1/1 120/1/1 119/1/1
f 123/1/1 120/1/1 122/1/1
f 124/1/1 121/1/1 117/1/1
f 125/1/1 121/1/1 124/1/1
f 126/2/1 123/2/1 122/2/1
f 127/2/1 123/2/1 126/2/1
f 132/2/1 129/2/1 128/2/1
f 133/2/1 129/2/1 132/2/1
f 138/2/1 131/2/1 130/2/1
f 139/2/1 131/2/1 138/2/1
f 140/2/1 135/2/1 134/2/1
f 140/2/1 136/2/1 135/2/1
f 141/1/1 137/1/1 136/1/1
f 141/2/1 136/2/1 140/2/1
f 142/1/1 137/1/1 141/1/1
f 147/2/1 144/2/1 143/2/1
f 148/2/1 144/2/1 147/2/1
f 149/2/1 146/2/1 145/2/1
f 150/2/1 146/2/1 149/2/1
f 155/2/1 152/2/1 151/2/1
f 156/2/1 152/2/1 155/2/1
f 157/2/1 154/2/1 153/2/1
f 158/2/1 154/2/1 157/2/1
f 163/1/1 160/1/1 159/1/1
f 164/1/1 160/1/1 163/1/1
f 165/1/1 162/1/1 161/1/1
f 166/1/1 162/1/1 165/1/1
f 171/2/1 168/2/1 167/2/1
f 172/2/1 168/2/1 171/2/1
f 173/1/1 170/1/1 169/1/1
f 174/1/1 170/1/1 173/1/1
f 179/1/1 176/1/1 175/1/1
f 180/1/1 176/1/1 179/1/1
f 181/1/1 176/1/1 180/1/1
f 185/1/1 178/1/1 177/1/1
f 186/1/1 178/1/1 185/1/1
f 187/1/1 183/1/1 182/1/1
f 188/1/1 183/1/1 187/1/1
f 190/2/1 185/2/1 184/2/1
f 191/2/1 185/2/1 190/2/1
f 192/1/1 189/1/1 188/1/1
f 193/1/1 189/1/1 192/1/1
f 198/2/1 195/2/1 194/2/1
f 199/2/1 195/2/1 198/2/1
f 200/1/1 197/1/1 196/1/1
f 201/1/1 197/1/1 200/1/1
f 202/1/1 199/1/1 198/1/1
f 203/1/1 199/1/1 202/1/1
f 204/2/1 201/2/1 200/2/1
f 205/2/1 201/2/1 204/2/1
f 206/2/1 203/2/1 202/2/1
f 207/2/1 203/2/1 206/2/1
f 208/1/1 205/1/1 204/1/1
f 209/1/1 205/1/1 208/1/1
f 214/1/1 211/1/1 210/1/1
f 215/1/1 211/1/1 214/1/1
f 218/2/1 213/2/1 212/2/1
f 219/2/1 213/2/1 218/2/1
f 220/1/1 216/1/1 215/1/1
f 221/1/1 216/1/1 220/1/1
f 226/2/1 218/2/1 217/2/1
f 227/2/1 218/2/1 226/2/1
f 228/2/1 223/2/1 222/2/1
f 229/1/1 224/1/1 223/1/1
f 229/2/1 223/2/1 228/2/1
f 230/2/1 225/2/1 224/2/1
f 230/1/1 224/1/1 229/1/1
f 231/2/1 225/2/1 230/2/1
f 236/1/1 233/1/1 232/1/1
f 237/1/1 233/1/1 236/1/1
f 238/2/1 235/2/1 234/2/1
f 239/2/1 235/2/1 238/2/1
f 244/1/1 241/1/1 240/1/1
f 245/1/1 241/1/1 244/1/1
f 246/1/1 243/1/1 242/1/1
f 247/1/1 243/1/1 246/1/1
f 252/2/1 249/2/1 248/2/1
f 253/2/1 249/2/1 252/2/1
f 254/2/1 251/2/1 250/2/1
f 255/2/1 251/2/1 254/2/1
f 260/1/1 257/1/1 256/1/1
f 261/1/1 257/1/1 260/1/1
f 262/1/1 259/1/1 258/1/1
f 263/1/1 259/1/1 262/1/1
f 264/2/2 265/2/2 268/2/2
f 268/2/2 265/2/2 269/2/2
f 266/1/2 267/1/2 270/1/2
f 270/1/2 267/1/2 271/1/2
f 272/2/2 273/2/2 276/2/2
f 276/2/2 273/2/2 277/2/2
f 274/1/2 275/1/2 278/1/2
f 278/1/2 275/1/2 279/1/2
f 280/2/2 281/2/2 284/2/2
f 284/2/2 281/2/2 285/2/2
f 282/1/2 283/1/2 286/1/2
f 286/1/2 283/1/2 287/1/2
f 288/2/2 289/2/2 292/2/2
f 292/2/2 289/2/2 293/2/2
f 290/2/2 291/2/2 294/2/2
f 294/2/2 291/2/2 295/2/2
f 296/2/2 297/2/2 302/2/2
f 297/1/2 298/1/2 303/1/2
f 302/2/2 297/2/2 303/2/2
f 298/2/2 299/2/2 304/2/2
f 303/1/2 298/1/2 304/1/2
f 304/2/2 299/2/2 305/2/2
f 300/2/2 301/2/2 309/2/2
f 309/2/2 301/2/2 310/2/2
f 306/1/2 307/1/2 311/1/2
f 311/1/2 307/1/2 312/1/2
f 308/2/2 309/2/2 314/2/2
f 314/2/2 309/2/2 315/2/2
f 312/2/2 313/2/2 316/2/2
f 316/2/2 313/2/2 317/2/2
f 320/1/2 321/1/2 322/1/2
f 322/1/2 321/1/2 323/1/2
f 322/2/2 323/2/2 324/2/2
f 318/2/2 319/2/2 325/2/2
f 325/2/2 319/2/2 326/2/2
f 324/2/2 323/2/2 327/2/2
f 327/2/2 323/2/2 328/2/2
f 329/1/2 330/1/2 333/1/2
f 333/1/2 330/1/2 334/1/2
f 331/2/2 332/2/2 337/2/2
f 337/2/2 332/2/2 338/2/2
f 334/2/2 335/2/2 339/2/2
f 339/2/2 335/2/2 340/2/2
f 336/2/2 337/2/2 344/2/2
f 344/2/2 337/2/2 345/2/2
f 341/1/2 342/1/2 346/1/2
f 342/2/2 343/2/2 347/2/2
f 346/1/2 342/1/2 347/1/2
f 347/2/2 343/2/2 348/2/2
f 349/2/2 350/2/2 353/2/2
f 353/2/2 350/2/2 354/2/2
f 351/1/2 352/1/2 355/1/2
f 355/1/2 352/1/2 356/1/2
f 357/2/2 358/2/2 361/2/2
f 361/2/2 358/2/2 362/2/2
f 359/1/2 360/1/2 363/1/2
f 363/1/2 360/1/2 364/1/2
f 365/1/2 366/1/2 369/1/2
f 369/1/2 366/1/2 370/1/2
f 367/2/2 368/2/2 371/2/2
f 371/2/2 368/2/2 372/2/2
f 373/1/2 374/1/2 377/1/2
f 377/1/2 374/1/2 378/1/2
f 375/2/2 376/2/2 379/2/2
f 379/2/2 376/2/2 380/2/2
f 381/2/2 382/2/2 386/2/2
f 386/2/2 382/2/2 387/2/2
f 382/1/2 383/1/2 388/1/2
f 387/2/2 382/2/2 388/2/2
f 388/1/2 383/1/2 389/1/2
f 384/1/2 385/1/2 392/1/2
f 392/1/2 385/1/2 393/1/2
f 390/2/2 391/2/2 394/2/2
f 394/2/2 391/2/2 395/2/2
f 396/2/2 397/2/2 400/2/2
f 400/2/2 397/2/2 401/2/2
f 398/2/2 399/2/2 402/2/2
f 402/2/2 399/2/2 403/2/2
f 400/1/2 401/1/2 404/1/2
f 400/1/2 404/1/2 405/1/2
f 405/1/2 404/1/2 406/1/2
f 402/1/2 403/1/2 407/1/2
f 407/1/2 403/1/2 408/1/2
f 409/1/2 410/1/2 413/1/2
f 413/1/2 410/1/2 414/1/2
f 411/2/2 412/2/2 418/2/2
f 418/2/2 412/2/2 419/2/2
f 415/2/2 416/2/2 420/2/2
f 416/1/2 417/1/2 421/1/2
f 420/2/2 416/2/2 421/2/2
f 421/1/2 417/1/2 422/1/2
f 423/1/2 424/1/2 428/1/2
f 428/1/2 424/1/2 429/1/2
f 425/2/2 426/2/2 430/2/2
f 430/2/2 426/2/2 431/2/2
f 427/2/2 428/2/2 433/2/2
f 433/2/2 428/2/2 434/2/2
f 431/2/2 432/2/2 435/2/2
f 435/2/2 432/2/2 436/2/2
f 437/1/2 438/1/2 441/1/2
f 441/1/2 438/1/2 442/1/2
f 439/1/2 440/1/2 445/1/2
f 445/1/2 440/1/2 446/1/2
f 442/1/2 443/1/2 447/1/2
f 447/1/2 443/1/2 448/1/2
f 444/1/2 445/1/2 449/1/2
f 449/1/2 445/1/2 450/1/2
f 451/2/2 452/2/2 455/2/2
f 452/1/2 453/1/2 456/1/2
f 455/2/2 452/2/2 456/2/2
f 456/1/2 453/1/2 457/1/2
f 457/1/2 453/1/2 458/1/2
f 454/2/2 455/2/2 461/2/2
f 461/2/2 455/2/2 462/2/2
f 458/2/2 459/2/2 463/2/2
f 463/2/2 459/2/2 464/2/2
f 464/1/2 465/1/2 466/1/2
f 466/1/2 465/1/2 467/1/2
f 460/2/2 461/2/2 468/2/2
f 468/2/2 461/2/2 469/2/2
f 466/2/2 467/2/2 470/2/2
f 468/1/2 469/1/2 471/1/2
f 471/1/2 469/1/2 472/1/2
f 470/2/2 467/2/2 475/2/2
f 475/2/2 467/2/2 476/2/2
f 472/1/2 473/1/2 477/1/2
f 477/1/2 473/1/2 478/1/2
f 474/2/2 475/2/2 481/2/2
f 481/2/2 475/2/2 482/2/2
f 478/1/2 479/1/2 483/1/2
f 479/2/2 480/2/2 484/2/2
f 483/1/2 479/1/2 484/1/2
f 480/2/2 481/2/2 484/2/2
f 484/2/2 481/2/2 485/2/2
f 486/2/2 487/2/2 490/2/2
f 490/2/2 487/2/2 491/2/2
f 487/1/2 488/1/2 492/1/2
f 491/2/2 487/2/2 492/2/2
f 492/1/2 488/1/2 493/1/2
f 493/1/2 494/1/2 495/1/2
f 495/1/2 494/1/2 496/1/2
f 489/2/2 490/2/2 497/2/2
f 497/2/2 490/2/2 498/2/2
f 495/2/2 496/2/2 499/2/2
f 499/2/2 496/2/2 500/2/2
f 497/1/2 498/1/2 501/1/2
f 501/1/2 498/1/2 502/1/2
f 499/1/2 500/1/2 505/1/2
f 505/1/2 500/1/2 506/1/2
f 502/1/2 503/1/2 507/1/2
f 503/2/2 504/2/2 508/2/2
f 507/1/2 503/1/2 508/1/2
f 504/1/2 505/1/2 509/1/2
f 508/2/2 504/2/2 509/2/2
f 509/1/2 505/1/2 510/1/2
f 511/2/2 512/2/2 515/2/2
f 512/1/2 513/1/2 515/1/2
f 513/2/2 514/2/2 516/2/2
f 515/1/2 513/1/2 516/1/2
f 516/2/2 514/2/2 517/2/2
f 511/2/2 515/2/2 518/2/2
f 515/2/2 516/2/2 518/2/2
f 516/1/2 517/1/2 519/1/2
f 518/2/2 516/2/2 519/2/2
f 519/1/2 517/1/2 520/1/2
f 518/1/2 519/1/2 521/1/2
f 519/2/2 520/2/2 522/2/2
f 521/1/2 519/1/2 522/1/2
f 522/2/2 520/2/2 523/2/2
f 528/2/3 525/2/3 524/2/3
f 529/1/3 526/1/3 525/1/3
f 529/2/3 525/2/3 528/2/3
f 530/2/3 527/2/3 526/2/3
f 530/1/3 526/1/3 529/1/3
f 531/2/3 527/2/3 530/2/3
f 533/1/3 529/1/3 528/1/3
f 534/2/3 530/2/3 529/2/3
f 534/1/3 529/1/3 533/1/3
f 535/1/3 531/1/3 530/1/3
f 535/2/3 530/2/3 534/2/3
f 536/1/3 531/1/3 535/1/3
f 538/2/3 536/2/3 535/2/3
f 538/2/3 537/2/3 536/2/3
f 538/2/3 535/2/3 534/2/3
f 538/2/3 534/2/3 533/2/3
f 539/2/3 537/2/3 538/2/3
f 540/1/3 533/1/3 532/1/3
f 540/2/3 538/2/3 533/2/3
f 541/1/3 539/1/3 538/1/3
f 541/2/3 538/2/3 540/2/3
f 542/2/3 537/2/3 539/2/3
f 542/1/3 539/1/3 541/1/3
f 543/2/3 537/2/3 542/2/3
f 544/1/3 541/1/3 540/1/3
f 544/1/3 540/1/3 532/1/3
f 544/1/3 543/1/3 542/1/3
f 544/1/3 542/1/3 541/1/3
f 545/1/3 543/1/3 544/1/3
f 546/1/3 543/1/3 545/1/3
f 547/1/3 543/1/3 546/1/3
f 548/2/3 545/2/3 544/2/3
f 549/1/3 546/1/3 545/1/3
f 549/2/3 545/2/3 548/2/3
f 550/2/3 547/2/3 546/2/3
f 550/1/3 546/1/3 549/1/3
f 551/2/3 548/2/3 544/2/3
f 552/1/3 549/1/3 548/1/3
f 552/2/3 548/2/3 551/2/3
f 553/2/3 550/2/3 549/2/3
f 553/1/3 549/1/3 552/1/3
f 554/2/3 547/2/3 550/2/3
f 554/2/3 550/2/3 553/2/3
f 555/2/3 547/2/3 554/2/3
f 556/2/3 547/2/3 555/2/3
f 557/2/3 553/2/3 552/2/3
f 557/1/3 554/1/3 553/1/3
f 558/2/3 555/2/3 554/2/3
f 558/1/3 554/1/3 557/1/3
f 559/2/3 557/2/3 552/2/3
f 559/2/3 558/2/3 557/2/3
f 560/2/3 555/2/3 558/2/3
f 560/2/3 558/2/3 559/2/3
f 565/2/3 562/2/3 561/2/3
f 566/1/3 563/1/3 562/1/3
f 568/1/3 566/1/3 562/1/3
f 568/1/3 567/1/3 566/1/3
f 569/1/3 567/1/3 568/1/3
f 571/2/3 565/2/3 564/2/3
f 572/2/3 562/2/3 565/2/3
f 572/2/3 565/2/3 571/2/3
f 573/1/3 568/1/3 562/1/3
f 573/2/3 562/2/3 572/2/3
f 574/2/3 569/2/3 568/2/3
f 574/1/3 568/1/3 573/1/3
f 575/2/3 569/2/3 574/2/3
f 576/2/3 569/2/3 575/2/3
f 578/2/3 571/2/3 570/2/3
f 579/1/3 572/1/3 571/1/3
f 579/2/3 571/2/3 578/2/3
f 580/1/3 572/1/3 579/1/3
f 581/1/3 576/1/3 575/1/3
f 581/1/3 577/1/3 576/1/3
f 582/1/3 577/1/3 581/1/3
f 583/2/3 580/2/3 579/2/3
f 583/1/3 579/1/3 578/1/3
f 584/2/3 580/2/3 583/2/3
f 585/2/3 582/2/3 581/2/3
f 586/1/3 577/1/3 582/1/3
f 586/2/3 582/2/3 585/2/3
f 587/1/3 577/1/3 586/1/3
f 588/2/3 587/2/3 586/2/3
f 589/2/3 587/2/3 588/2/3
f 590/1/3 583/1/3 578/1/3
f 591/1/3 583/1/3 590/1/3
f 592/1/3 589/1/3 588/1/3
f 593/1/3 589/1/3 592/1/3
f 594/1/3 589/1/3 593/1/3
f 595/2/3 591/2/3 590/2/3
f 596/2/3 591/2/3 595/2/3
f 599/2/3 594/2/3 593/2/3
f 600/2/3 594/2/3 599/2/3
f 601/1/3 596/1/3 595/1/3
f 602/2/3 597/2/3 596/2/3
f 602/1/3 596/1/3 601/1/3
f 603/2/3 597/2/3 602/2/3
f 604/2/3 602/2/3 601/2/3
f 605/1/3 603/1/3 602/1/3
f 605/2/3 602/2/3 604/2/3
f 606/1/3 603/1/3 605/1/3
f 607/2/3 599/2/3 598/2/3
f 608/1/3 600/1/3 599/1/3
f 608/2/3 599/2/3 607/2/3
f 609/1/3 600/1/3 608/1/3
f 610/2/3 606/2/3 605/2/3
f 610/1/3 607/1/3 606/1/3
f 610/1/3 608/1/3 607/1/3
f 611/1/3 608/1/3 610/1/3
f 612/2/3 610/2/3 605/2/3
f 612/2/3 611/2/3 610/2/3
f 613/2/3 611/2/3 612/2/3
f 614/2/3 611/2/3 613/2/3
f 615/1/3 608/1/3 611/1/3
f 615/2/3 611/2/3 614/2/3
f 616/1/3 608/1/3 615/1/3
f 617/2/3 614/2/3 613/2/3
f 618/1/3 615/1/3 614/1/3
f 618/2/3 614/2/3 617/2/3
f 619/1/3 615/1/3 618/1/3
f 623/2/3 621/2/3 620/2/3
f 624/2/3 621/2/3 623/2/3
f 625/2/3 621/2/3 624/2/3
f 628/2/3 623/2/3 622/2/3
f 628/2/3 624/2/3 623/2/3
f 629/2/3 624/2/3 628/2/3
f 630/2/3 624/2/3 629/2/3
f 631/1/3 625/1/3 624/1/3
f 631/2/3 624/2/3 630/2/3
f 632/2/3 626/2/3 625/2/3
f 632/1/3 625/1/3 631/1/3
f 633/2/3 626/2/3 632/2/3
f 635/2/3 628/2/3 627/2/3
f 635/2/3 629/2/3 628/2/3
f 636/2/3 629/2/3 635/2/3
f 637/2/3 629/2/3 636/2/3
f 638/2/3 634/2/3 633/2/3
f 638/2/3 633/2/3 632/2/3
f 639/2/3 634/2/3 638/2/3
f 640/2/3 634/2/3 639/2/3
f 642/1/3 636/1/3 635/1/3
f 643/1/3 636/1/3 642/1/3
f 644/2/3 634/2/3 640/2/3
f 645/2/3 634/2/3 644/2/3
f 647/1/3 642/1/3 641/1/3
f 648/1/3 642/1/3 647/1/3
f 649/1/3 646/1/3 645/1/3
f 650/1/3 646/1/3 649/1/3
f 651/2/3 648/2/3 647/2/3
f 652/2/3 648/2/3 651/2/3
f 653/2/3 650/2/3 649/2/3
f 654/2/3 650/2/3 653/2/3
f 655/2/3 650/2/3 654/2/3
f 656/1/3 652/1/3 651/1/3
f 657/1/3 652/1/3 656/1/3
f 658/1/3 655/1/3 654/1/3
f 659/2/3 657/2/3 656/2/3
f 660/1/3 655/1/3 658/1/3
f 661/1/3 655/1/3 660/1/3
f 662/2/3 659/2/3 656/2/3
f 663/2/3 659/2/3 662/2/3
f 664/2/3 661/2/3 660/2/3
f 665/1/3 663/1/3 662/1/3
f 666/2/3 661/2/3 664/2/3
f 667/1/3 665/1/3 662/1/3
f 668/1/3 665/1/3 667/1/3
f 669/2/3 668/2/3 667/2/3
f 670/2/3 668/2/3 669/2/3
f 673/2/3 661/2/3 666/2/3
f 674/2/3 661/2/3 673/2/3
f 675/1/3 671/1/3 670/1/3
f 676/1/3 671/1/3 675/1/3
f 677/2/3 676/2/3 675/2/3
f 678/2/3 676/2/3 677/2/3
f 681/1/3 673/1/3 672/1/3
f 682/1/3 679/1/3 678/1/3
f 682/1/3 678/1/3 677/1/3
f 683/1/3 679/1/3 682/1/3
f 684/1/3 679/1/3 683/1/3
f 687/2/3 681/2/3 680/2/3
f 688/1/3 673/1/3 681/1/3
f 688/2/3 681/2/3 687/2/3
f 689/1/3 673/1/3 688/1/3
f 690/2/3 686/2/3 685/2/3
f 690/2/3 684/2/3 683/2/3
f 690/2/3 685/2/3 684/2/3
f 691/2/3 686/2/3 690/2/3
f 692/1/3 687/1/3 686/1/3
f 692/1/3 688/1/3 687/1/3
f 693/1/3 688/1/3 692/1/3
f 694/2/3 686/2/3 691/2/3
f 695/1/3 692/1/3 686/1/3
f 695/2/3 686/2/3 694/2/3
f 696/1/3 692/1/3 695/1/3
f 701/2/3 698/2/3 697/2/3
f 702/1/3 699/1/3 698/1/3
f 702/2/3 698/2/3 701/2/3
f 703/1/3 699/1/3 702/1/3
f 706/2/3 701/2/3 700/2/3
f 707/2/3 701/2/3 706/2/3
f 708/1/3 704/1/3 703/1/3
f 709/1/3 704/1/3 708/1/3
f 711/2/3 706/2/3 705/2/3
f 712/2/3 706/2/3 711/2/3
f 713/1/3 710/1/3 709/1/3
f 714/1/3 710/1/3 713/1/3
f 719/2/3 718/2/3 717/2/3
f 720/2/3 718/2/3 719/2/3
f 721/2/3 716/2/3 715/2/3
f 722/2/3 716/2/3 721/2/3
f 723/1/3 720/1/3 719/1/3
f 724/1/3 720/1/3 723/1/3
f 729/1/3 726/1/3 725/1/3
f 730/1/3 726/1/3 729/1/3
f 731/1/3 728/1/3 727/1/3
f 732/1/3 728/1/3 731/1/3
f 733/2/3 730/2/3 729/2/3
f 734/2/3 732/2/3 731/2/3
f 735/2/3 732/2/3 734/2/3
f 736/2/3 733/2/3 729/2/3
f 737/1/3 735/1/3 734/1/3
f 738/1/3 735/1/3 737/1/3
f 739/2/3 736/2/3 729/2/3
f 740/2/3 736/2/3 739/2/3
f 741/2/3 738/2/3 737/2/3
f 742/2/3 738/2/3 741/2/3
f 747/1/3 744/1/3 743/1/3
f 748/1/3 744/1/3 747/1/3
f 749/2/3 746/2/3 745/2/3
f 750/2/3 746/2/3 749/2/3
f 751/2/3 748/2/3 747/2/3
f 752/2/3 748/2/3 751/2/3
f 753/1/3 750/1/3 749/1/3
f 754/1/3 750/1/3 753/1/3
f 759/1/3 756/1/3 755/1/3
f 760/1/3 756/1/3 759/1/3
f 763/1/3 758/1/3 757/1/3
f 764/1/3 758/1/3 763/1/3
f 765/2/3 761/2/3 760/2/3
f 766/2/3 761/2/3 765/2/3
f 768/1/3 763/1/3 762/1/3
f 769/1/3 763/1/3 768/1/3
f 770/2/3 767/2/3 766/2/3
f 771/1/3 768/1/3 767/1/3
f 771/2/3 767/2/3 770/2/3
f 772/1/3 768/1/3 771/1/3
f 777/1/3 774/1/3 773/1/3
f 778/2/3 775/2/3 774/2/3
f 778/1/3 774/1/3 777/1/3
f 779/2/3 775/2/3 778/2/3
f 782/1/3 777/1/3 776/1/3
f 783/1/3 777/1/3 782/1/3
f 784/2/3 780/2/3 779/2/3
f 785/2/3 780/2/3 784/2/3
f 787/2/3 782/2/3 781/2/3
f 788/2/3 782/2/3 787/2/3
f 789/1/3 786/1/3 785/1/3
f 790/1/3 786/1/3 789/1/3
f 795/1/3 792/1/3 791/1/3
f 796/1/3 792/1/3 795/1/3
f 797/2/3 794/2/3 793/2/3
f 798/2/3 794/2/3 797/2/3
f 803/1/3 800/1/3 799/1/3
f 804/1/3 800/1/3 803/1/3
f 805/2/3 804/2/3 803/2/3
f 806/2/3 804/2/3 805/2/3
f 807/2/3 802/2/3 801/2/3
f 808/2/3 802/2/3 807/2/3
f 813/2/3 810/2/3 809/2/3
f 814/2/3 812/2/3 811/2/3
f 815/2/3 812/2/3 814/2/3
f 816/2/3 813/2/3 809/2/3
f 817/2/3 813/2/3 816/2/3
f 818/1/3 815/1/3 814/1/3
f 819/1/3 815/1/3 818/1/3
f 824/2/3 821/2/3 820/2/3
f 825/2/3 821/2/3 824/2/3
f 826/2/3 823/2/3 822/2/3
f 827/2/3 823/2/3 826/2/3
f 832/2/3 829/2/3 828/2/3
f 833/2/3 829/2/3 832/2/3
f 836/1/3 831/1/3 830/1/3
f 837/1/3 831/1/3 836/1/3
f 838/2/3 834/2/3 833/2/3
f 839/2/3 834/2/3 838/2/3
f 841/1/3 836/1/3 835/1/3
f 842/1/3 836/1/3 841/1/3
f 843/2/3 840/2/3 839/2/3
f 844/1/3 841/1/3 840/1/3
f 844/2/3 840/2/3 843/2/3
f 845/1/3 841/1/3 844/1/3
f 846/2/4 847/2/4 851/2/4
f 847/1/4 848/1/4 852/1/4
f 851/2/4 847/2/4 852/2/4
f 848/2/4 849/2/4 853/2/4
f 852/1/4 848/1/4 853/1/4
f 853/2/4 849/2/4 854/2/4
f 850/2/4 851/2/4 857/2/4
f 857/2/4 851/2/4 858/2/4
f 854/1/4 855/1/4 859/1/4
f 859/1/4 855/1/4 860/1/4
f 856/2/4 857/2/4 862/2/4
f 862/2/4 857/2/4 863/2/4
f 860/1/4 861/1/4 864/1/4
f 864/1/4 861/1/4 865/1/4
f 866/1/4 867/1/4 870/1/4
f 870/1/4 867/1/4 871/1/4
f 868/1/4 869/1/4 872/1/4
f 872/1/4 869/1/4 873/1/4
f 874/1/4 875/1/4 878/1/4
f 876/2/4 877/2/4 879/2/4
f 879/2/4 877/2/4 880/2/4
f 874/1/4 878/1/4 881/1/4
f 881/1/4 878/1/4 882/1/4
f 879/1/4 880/1/4 883/1/4
f 883/1/4 880/1/4 884/1/4
f 885/2/4 886/2/4 889/2/4
f 885/2/4 889/2/4 890/2/4
f 890/2/4 889/2/4 891/2/4
f 887/2/4 888/2/4 892/2/4
f 892/2/4 888/2/4 893/2/4
f 894/1/4 895/1/4 898/1/4
f 898/1/4 895/1/4 899/1/4
f 896/1/4 897/1/4 900/1/4
f 900/1/4 897/1/4 901/1/4
f 902/1/4 903/1/4 906/1/4
f 906/1/4 903/1/4 907/1/4
f 904/2/4 905/2/4 910/2/4
f 910/2/4 905/2/4 911/2/4
f 907/1/4 908/1/4 912/1/4
f 912/1/4 908/1/4 913/1/4
f 909/1/4 910/1/4 916/1/4
f 916/1/4 910/1/4 917/1/4
f 913/2/4 914/2/4 918/2/4
f 914/1/4 915/1/4 919/1/4
f 918/2/4 914/2/4 919/2/4
f 915/2/4 916/2/4 920/2/4
f 919/1/4 915/1/4 920/1/4
f 920/2/4 916/2/4 921/2/4
f 922/1/4 923/1/4 925/1/4
f 925/1/4 923/1/4 926/1/4
f 926/1/4 923/1/4 927/1/4
f 924/2/4 925/2/4 930/2/4
f 930/2/4 925/2/4 931/2/4
f 927/1/4 928/1/4 932/1/4
f 932/1/4 928/1/4 933/1/4
f 929/2/4 930/2/4 935/2/4
f 935/2/4 930/2/4 936/2/4
f 933/1/4 934/1/4 937/1/4
f 937/1/4 934/1/4 938/1/4
f 939/2/4 940/2/4 943/2/4
f 943/2/4 940/2/4 944/2/4
f 941/1/4 942/1/4 945/1/4
f 945/1/4 942/1/4 946/1/4
f 943/1/4 944/1/4 947/1/4
f 947/1/4 944/1/4 948/1/4
f 945/2/4 946/2/4 949/2/4
f 949/2/4 946/2/4 950/2/4
f 953/1/4 954/1/4 955/1/4
f 955/1/4 954/1/4 956/1/4
f 951/2/4 952/2/4 957/2/4
f 955/2/4 956/2/4 958/2/4
f 951/2/4 957/2/4 959/2/4
f 959/2/4 957/2/4 960/2/4
f 958/2/4 956/2/4 961/2/4
f 959/1/4 960/1/4 962/1/4
f 962/1/4 960/1/4 963/1/4
f 961/2/4 956/2/4 964/2/4
f 964/2/4 956/2/4 965/2/4
f 968/1/4 969/1/4 970/1/4
f 970/1/4 969/1/4 971/1/4
f 966/1/4 967/1/4 972/1/4
f 972/1/4 967/1/4 973/1/4
f 970/2/4 971/2/4 974/2/4
f 974/2/4 971/2/4 975/2/4
f 976/2/4 977/2/4 980/2/4
f 980/2/4 977/2/4 981/2/4
f 978/1/4 979/1/4 984/1/4
f 984/1/4 979/1/4 985/1/4
f 981/2/4 982/2/4 986/2/4
f 986/2/4 982/2/4 987/2/4
f 983/2/4 984/2/4 990/2/4
f 990/2/4 984/2/4 991/2/4
f 987/1/4 988/1/4 992/1/4
f 988/2/4 989/2/4 993/2/4
f 992/1/4 988/1/4 993/1/4
f 989/1/4 990/1/4 994/1/4
f 993/2/4 989/2/4 994/2/4
f 994/1/4 990/1/4 995/1/4
f 996/1/4 997/1/4 1000/1/4
f 997/2/4 998/2/4 1001/2/4
f 1000/1/4 997/1/4 1001/1/4
f 1001/2/4 998/2/4 1002/2/4
f 1002/2/4 998/2/4 1003/2/4
f 999/1/4 1000/1/4 1006/1/4
f 1000/1/4 1001/1/4 1006/1/4
f 1001/1/4 1002/1/4 1006/1/4
f 1006/1/4 1002/1/4 1007/1/4
f 1007/1/4 1002/1/4 1008/1/4
f 1003/2/4 1004/2/4 1009/2/4
f 1008/1/4 1002/1/4 1009/1/4
f 1002/2/4 1003/2/4 1009/2/4
f 1009/2/4 1004/2/4 1010/2/4
f 1010/2/4 1004/2/4 1011/2/4
f 1006/1/4 1007/1/4 1013/1/4
f 1005/2/4 1006/2/4 1013/2/4
f 1013/1/4 1007/1/4 1014/1/4
f 1010/1/4 1011/1/4 1015/1/4
f 1011/2/4 1012/2/4 1016/2/4
f 1015/1/4 1011/1/4 1016/1/4
f 1005/2/4 1013/2/4 1017/2/4
f 1016/2/4 1012/2/4 1018/2/4
f 1018/2/4 1012/2/4 1019/2/4
f 1005/2/4 1017/2/4 1021/2/4
f 1021/2/4 1017/2/4 1022/2/4
f 1018/1/4 1019/1/4 1023/1/4
f 1023/1/4 1019/1/4 1024/1/4
f 1024/2/4 1025/2/4 1026/2/4
f 1026/2/4 1025/2/4 1027/2/4
f 1020/1/4 1021/1/4 1028/1/4
f 1028/1/4 1021/1/4 1029/1/4
f 1028/2/4 1029/2/4 1030/2/4
f 1030/2/4 1029/2/4 1031/2/4
f 1026/1/4 1027/1/4 1032/1/4
f 1032/1/4 1027/1/4 1033/1/4
f 1030/1/4 1031/1/4 1034/1/4
f 1034/1/4 1031/1/4 1035/1/4
f 1032/2/4 1033/2/4 1036/2/4
f 1036/2/4 1033/2/4 1037/2/4
f 1034/2/4 1035/2/4 1038/2/4
f 1036/1/4 1037/1/4 1039/1/4
f 1034/2/4 1038/2/4 1040/2/4
f 1040/2/4 1038/2/4 1041/2/4
f 1039/1/4 1037/1/4 1042/1/4
f 1042/1/4 1037/1/4 1043/1/4
f 1040/1/4 1041/1/4 1044/1/4
f 1044/1/4 1041/1/4 1045/1/4
f 1042/2/4 1043/2/4 1048/2/4
f 1048/2/4 1043/2/4 1049/2/4
f 1047/2/4 1048/2/4 1050/2/4
f 1045/2/4 1046/2/4 1051/2/4
f 1050/2/4 1048/2/4 1054/2/4
f 1045/2/4 1051/2/4 1055/2/4
f 1051/1/4 1052/1/4 1056/1/4
f 1055/2/4 1051/2/4 1056/2/4
f 1056/1/4 1052/1/4 1057/1/4
f 1053/1/4 1054/1/4 1059/1/4
f 1054/2/4 1048/2/4 1060/2/4
f 1059/1/4 1054/1/4 1060/1/4
f 1060/2/4 1048/2/4 1061/2/4
f 1057/2/4 1058/2/4 1062/2/4
f 1058/2/4 1059/2/4 1062/2/4
f 1056/2/4 1057/2/4 1062/2/4
f 1062/2/4 1059/2/4 1063/2/4
f 1063/2/4 1059/2/4 1064/2/4
f 1059/1/4 1060/1/4 1065/1/4
f 1064/2/4 1059/2/4 1065/2/4
f 1065/1/4 1060/1/4 1066/1/4
f 1063/1/4 1064/1/4 1067/1/4
f 1064/2/4 1065/2/4 1068/2/4
f 1067/1/4 1064/1/4 1068/1/4
f 1068/2/4 1065/2/4 1069/2/4
f 1070/2/4 1071/2/4 1075/2/4
f 1071/1/4 1072/1/4 1076/1/4
f 1075/2/4 1071/2/4 1076/2/4
f 1072/2/4 1073/2/4 1077/2/4
f 1076/1/4 1072/1/4 1077/1/4
f 1077/2/4 1073/2/4 1078/2/4
f 1074/2/4 1075/2/4 1080/2/4
f 1075/1/4 1076/1/4 1081/1/4
f 1080/2/4 1075/2/4 1081/2/4
f 1076/2/4 1077/2/4 1082/2/4
f 1081/1/4 1076/1/4 1082/1/4
f 1077/2/4 1078/2/4 1082/2/4
f 1082/2/4 1078/2/4 1083/2/4
f 1078/1/4 1079/1/4 1084/1/4
f 1083/2/4 1078/2/4 1084/2/4
f 1084/1/4 1079/1/4 1085/1/4
f 1082/1/4 1083/1/4 1087/1/4
f 1080/1/4 1081/1/4 1087/1/4
f 1081/1/4 1082/1/4 1087/1/4
f 1087/1/4 1083/1/4 1088/1/4
f 1088/1/4 1083/1/4 1089/1/4
f 1084/2/4 1085/2/4 1090/2/4
f 1089/1/4 1083/1/4 1090/1/4
f 1083/2/4 1084/2/4 1090/2/4
f 1090/2/4 1085/2/4 1091/2/4
f 1091/2/4 1085/2/4 1092/2/4
f 1091/2/4 1092/2/4 1094/2/4
f 1092/2/4 1093/2/4 1094/2/4
f 1094/2/4 1093/2/4 1095/2/4
f 1086/1/4 1087/1/4 1096/1/4
f 1087/2/4 1088/2/4 1096/2/4
f 1096/2/4 1088/2/4 1097/2/4
f 1094/1/4 1095/1/4 1098/1/4
f 1095/2/4 1093/2/4 1099/2/4
f 1098/1/4 1095/1/4 1099/1/4
f 1086/1/4 1096/1/4 1100/1/4
f 1100/1/4 1096/1/4 1101/1/4
f 1099/2/4 1093/2/4 1102/2/4
f 1100/2/4 1101/2/4 1103/2/4
f 1102/2/4 1093/2/4 1104/2/4
f 1100/2/4 1103/2/4 1105/2/4
f 1105/2/4 1103/2/4 1106/2/4
f 1104/2/4 1093/2/4 1107/2/4
f 1105/1/4 1106/1/4 1108/1/4
f 1108/1/4 1106/1/4 1109/1/4
f 1107/2/4 1093/2/4 1112/2/4
f 1112/2/4 1093/2/4 1113/2/4
f 1109/1/4 1110/1/4 1114/1/4
f 1108/2/4 1109/2/4 1114/2/4
f 1114/1/4 1110/1/4 1115/1/4
f 1111/2/4 1112/2/4 1116/2/4
f 1112/1/4 1113/1/4 1117/1/4
f 1116/2/4 1112/2/4 1117/2/4
f 1117/1/4 1113/1/4 1118/1/4
f 1114/2/4 1115/2/4 1119/2/4
f 1108/2/4 1114/2/4 1119/2/4
f 1119/2/4 1115/2/4 1120/2/4
f 1120/2/4 1115/2/4 1121/2/4
f 1117/2/4 1118/2/4 1124/2/4
f 1116/2/4 1117/2/4 1124/2/4
f 1124/2/4 1118/2/4 1125/2/4
f 1125/2/4 1118/2/4 1126/2/4
f 1122/2/4 1123/2/4 1127/2/4
f 1124/1/4 1125/1/4 1127/1/4
f 1123/1/4 1124/1/4 1127/1/4
f 1127/1/4 1125/1/4 1128/1/4
f 1121/1/4 1122/1/4 1129/1/4
f 1120/1/4 1121/1/4 1129/1/4
f 1129/1/4 1122/1/4 1130/1/4
f 1127/2/4 1128/2/4 1131/2/4
f 1130/1/4 1122/1/4 1131/1/4
f 1122/2/4 1127/2/4 1131/2/4
f 1131/2/4 1128/2/4 1132/2/4
f 1132/2/4 1128/2/4 1133/2/4
f 1130/2/4 1131/2/4 1134/2/4
f 1131/1/4 1132/1/4 1135/1/4
f 1134/2/4 1131/2/4 1135/2/4
f 1135/1/4 1132/1/4 1136/1/4
f 1137/1/4 1138/1/4 1141/1/4
f 1138/2/4 1139/2/4 1141/2/4
f 1139/1/4 1140/1/4 1142/1/4
f 1141/2/4 1139/2/4 1142/2/4
f 1142/1/4 1140/1/4 1143/1/4
f 1137/1/4 1141/1/4 1145/1/4
f 1141/1/4 1142/1/4 1145/1/4
f 1142/2/4 1143/2/4 1146/2/4
f 1144/1/4 1145/1/4 1148/1/4
f 1145/1/4 1142/1/4 1148/1/4
f 1142/2/4 1146/2/4 1149/2/4
f 1148/1/4 1142/1/4 1149/1/4
f 1146/2/4 1147/2/4 1149/2/4
f 1149/2/4 1147/2/4 1150/2/4
f 1144/1/4 1148/1/4 1151/1/4
f 1148/2/4 1149/2/4 1152/2/4
f 1151/1/4 1148/1/4 1152/1/4
f 1152/2/4 1149/2/4 1153/2/4
f 1149/1/4 1150/1/4 1154/1/4
f 1153/2/4 1149/2/4 1154/2/4
f 1150/2/4 1147/2/4 1155/2/4
f 1154/1/4 1150/1/4 1155/1/4
f 1155/2/4 1147/2/4 1156/2/4
f 1152/2/4 1153/2/4 1157/2/4
f 1151/2/4 1152/2/4 1157/2/4
f 1157/2/4 1153/2/4 1158/2/4
f 1153/1/4 1154/1/4 1159/1/4
f 1158/2/4 1153/2/4 1159/2/4
f 1155/1/4 1156/1/4 1159/1/4
f 1154/1/4 1155/1/4 1159/1/4
f 1159/1/4 1156/1/4 1160/1/4
f 1160/1/4 1156/1/4 1161/1/4
f 1161/1/4 1156/1/4 1162/1/4
f 1157/1/4 1158/1/4 1163/1/4
f 1158/2/4 1159/2/4 1163/2/4
f 1159/2/4 1160/2/4 1163/2/4
f 1163/2/4 1160/2/4 1164/2/4
f 1160/1/4 1161/1/4 1165/1/4
f 1164/2/4 1160/2/4 1165/2/4
f 1161/2/4 1162/2/4 1166/2/4
f 1165/1/4 1161/1/4 1166/1/4
f 1166/2/4 1162/2/4 1167/2/4
f 1163/1/4 1164/1/4 1168/1/4
f 1157/1/4 1163/1/4 1168/1/4
f 1168/1/4 1164/1/4 1169/1/4
f 1164/2/4 1165/2/4 1170/2/4
f 1169/1/4 1164/1/4 1170/1/4
f 1165/2/4 1166/2/4 1170/2/4
f 1166/1/4 1167/1/4 1171/1/4
f 1170/2/4 1166/2/4 1171/2/4
f 1171/1/4 1167/1/4 1172/1/4
f 1169/1/4 1170/1/4 1173/1/4
f 1170/1/4 1171/1/4 1173/1/4
f 1173/1/4 1171/1/4 1174/1/4
f 1169/1/4 1173/1/4 1175/1/4
f 1173/2/4 1174/2/4 1176/2/4
f 1175/1/4 1173/1/4 1176/1/4
f 1176/2/4 1174/2/4 1177/2/4
f 1183/1/5 1179/1/5 1178/1/5
f 1184/2/5 1180/2/5 1179/2/5
f 1185/2/5 1180/2/5 1184/2/5
f 1186/2/5 1180/2/5 1185/2/5
f 1188/2/5 1183/2/5 1182/2/5
f 1188/1/5 1179/1/5 1183/1/5
f 1189/2/5 1184/2/5 1179/2/5
f 1189/1/5 1179/1/5 1188/1/5
f 1190/1/5 1185/1/5 1184/1/5
f 1190/2/5 1184/2/5 1189/2/5
f 1191/1/5 1185/1/5 1190/1/5
f 1192/2/5 1187/2/5 1186/2/5
f 1192/1/5 1185/1/5 1191/1/5
f 1192/2/5 1186/2/5 1185/2/5
f 1193/2/5 1187/2/5 1192/2/5
f 1194/1/5 1182/1/5 1181/1/5
f 1194/2/5 1188/2/5 1182/2/5
f 1194/2/5 1189/2/5 1188/2/5
f 1195/2/5 1189/2/5 1194/2/5
f 1196/1/5 1191/1/5 1190/1/5
f 1196/2/5 1189/2/5 1195/2/5
f 1196/1/5 1190/1/5 1189/1/5
f 1197/1/5 1191/1/5 1196/1/5
f 1198/1/5 1193/1/5 1192/1/5
f 1198/2/5 1192/2/5 1191/2/5
f 1199/1/5 1193/1/5 1198/1/5
f 1200/1/5 1195/1/5 1194/1/5
f 1200/1/5 1194/1/5 1181/1/5
f 1201/2/5 1197/2/5 1196/2/5
f 1201/1/5 1195/1/5 1200/1/5
f 1201/2/5 1196/2/5 1195/2/5
f 1202/1/5 1191/1/5 1197/1/5
f 1202/2/5 1197/2/5 1201/2/5
f 1203/2/5 1199/2/5 1198/2/5
f 1203/1/5 1191/1/5 1202/1/5
f 1203/2/5 1198/2/5 1191/2/5
f 1204/2/5 1199/2/5 1203/2/5
f 1205/2/5 1199/2/5 1204/2/5
f 1206/2/5 1199/2/5 1205/2/5
f 1207/2/5 1202/2/5 1201/2/5
f 1207/2/5 1203/2/5 1202/2/5
f 1207/2/5 1204/2/5 1203/2/5
f 1208/1/5 1205/1/5 1204/1/5
f 1208/2/5 1204/2/5 1207/2/5
f 1209/1/5 1205/1/5 1208/1/5
f 1218/1/5 1211/1/5 1210/1/5
f 1219/2/5 1212/2/5 1211/2/5
f 1219/1/5 1211/1/5 1218/1/5
f 1220/1/5 1213/1/5 1212/1/5
f 1220/2/5 1212/2/5 1219/2/5
f 1221/1/5 1213/1/5 1220/1/5
f 1222/2/5 1214/2/5 1213/2/5
f 1222/1/5 1213/1/5 1221/1/5
f 1223/1/5 1215/1/5 1214/1/5
f 1223/2/5 1214/2/5 1222/2/5
f 1224/1/5 1215/1/5 1223/1/5
f 1225/2/5 1216/2/5 1215/2/5
f 1229/2/5 1218/2/5 1217/2/5
f 1229/2/5 1219/2/5 1218/2/5
f 1229/2/5 1220/2/5 1219/2/5
f 1230/2/5 1220/2/5 1229/2/5
f 1231/2/5 1220/2/5 1230/2/5
f 1232/2/5 1220/2/5 1231/2/5
f 1233/1/5 1215/1/5 1224/1/5
f 1234/2/5 1225/2/5 1215/2/5
f 1234/1/5 1215/1/5 1233/1/5
f 1235/1/5 1226/1/5 1225/1/5
f 1235/2/5 1225/2/5 1234/2/5
f 1236/2/5 1227/2/5 1226/2/5
f 1236/1/5 1226/1/5 1235/1/5
f 1237/2/5 1227/2/5 1236/2/5
f 1239/1/5 1229/1/5 1228/1/5
f 1240/2/5 1230/2/5 1229/2/5
f 1240/1/5 1229/1/5 1239/1/5
f 1241/2/5 1230/2/5 1240/2/5
f 1242/2/5 1238/2/5 1237/2/5
f 1242/2/5 1237/2/5 1236/2/5
f 1242/2/5 1236/2/5 1235/2/5
f 1243/2/5 1240/2/5 1239/2/5
f 1244/1/5 1241/1/5 1240/1/5
f 1244/2/5 1240/2/5 1243/2/5
f 1245/2/5 1238/2/5 1242/2/5
f 1246/2/5 1238/2/5 1245/2/5
f 1247/2/5 1238/2/5 1246/2/5
f 1248/1/5 1244/1/5 1243/1/5
f 1249/1/5 1241/1/5 1244/1/5
f 1249/1/5 1244/1/5 1248/1/5
f 1250/1/5 1241/1/5 1249/1/5
f 1251/1/5 1241/1/5 1250/1/5
f 1256/2/5 1246/2/5 1245/2/5
f 1257/1/5 1247/1/5 1246/1/5
f 1257/2/5 1246/2/5 1256/2/5
f 1258/1/5 1247/1/5 1257/1/5
f 1259/2/5 1250/2/5 1249/2/5
f 1260/1/5 1251/1/5 1250/1/5
f 1260/2/5 1250/2/5 1259/2/5
f 1261/2/5 1252/2/5 1251/2/5
f 1261/1/5 1251/1/5 1260/1/5
f 1262/1/5 1253/1/5 1252/1/5
f 1262/2/5 1252/2/5 1261/2/5
f 1263/1/5 1253/1/5 1262/1/5
f 1266/2/5 1255/2/5 1254/2/5
f 1267/1/5 1256/1/5 1255/1/5
f 1267/1/5 1257/1/5 1256/1/5
f 1268/1/5 1257/1/5 1267/1/5
f 1269/1/5 1262/1/5 1261/1/5
f 1269/1/5 1263/1/5 1262/1/5
f 1270/2/5 1264/2/5 1263/2/5
f 1270/1/5 1263/1/5 1269/1/5
f 1271/1/5 1265/1/5 1264/1/5
f 1271/2/5 1264/2/5 1270/2/5
f 1272/2/5 1266/2/5 1265/2/5
f 1272/1/5 1265/1/5 1271/1/5
f 1273/2/5 1255/2/5 1266/2/5
f 1273/2/5 1266/2/5 1272/2/5
f 1273/1/5 1267/1/5 1255/1/5
f 1274/1/5 1267/1/5 1273/1/5
f 1283/2/5 1276/2/5 1275/2/5
f 1284/1/5 1277/1/5 1276/1/5
f 1284/2/5 1276/2/5 1283/2/5
f 1285/1/5 1277/1/5 1284/1/5
f 1286/1/5 1277/1/5 1285/1/5
f 1287/2/5 1278/2/5 1277/2/5
f 1287/1/5 1277/1/5 1286/1/5
f 1288/2/5 1278/2/5 1287/2/5
f 1289/1/5 1279/1/5 1278/1/5
f 1289/2/5 1278/2/5 1288/2/5
f 1290/2/5 1280/2/5 1279/2/5
f 1290/1/5 1279/1/5 1289/1/5
f 1291/2/5 1280/2/5 1290/2/5
f 1296/2/5 1282/2/5 1281/2/5
f 1297/1/5 1283/1/5 1282/1/5
f 1297/2/5 1282/2/5 1296/2/5
f 1298/1/5 1283/1/5 1297/1/5
f 1299/1/5 1292/1/5 1291/1/5
f 1300/2/5 1293/2/5 1292/2/5
f 1300/1/5 1292/1/5 1299/1/5
f 1301/1/5 1294/1/5 1293/1/5
f 1301/2/5 1293/2/5 1300/2/5
f 1302/1/5 1294/1/5 1301/1/5
f 1305/2/5 1296/2/5 1295/2/5
f 1306/1/5 1297/1/5 1296/1/5
f 1306/2/5 1296/2/5 1305/2/5
f 1307/1/5 1297/1/5 1306/1/5
f 1308/1/5 1303/1/5 1302/1/5
f 1308/1/5 1302/1/5 1301/1/5
f 1309/1/5 1303/1/5 1308/1/5
f 1310/1/5 1303/1/5 1309/1/5
f 1312/2/5 1305/2/5 1304/2/5
f 1313/1/5 1306/1/5 1305/1/5
f 1313/2/5 1305/2/5 1312/2/5
f 1314/1/5 1306/1/5 1313/1/5
f 1315/1/5 1310/1/5 1309/1/5
f 1316/2/5 1311/2/5 1310/2/5
f 1316/1/5 1310/1/5 1315/1/5
f 1317/2/5 1311/2/5 1316/2/5
f 1318/1/5 1313/1/5 1312/1/5
f 1319/2/5 1314/2/5 1313/2/5
f 1319/1/5 1313/1/5 1318/1/5
f 1320/2/5 1314/2/5 1319/2/5
f 1321/2/5 1316/2/5 1315/2/5
f 1322/2/5 1320/2/5 1319/2/5
f 1322/2/5 1319/2/5 1318/2/5
f 1323/2/5 1320/2/5 1322/2/5
f 1324/2/5 1320/2/5 1323/2/5
f 1327/2/5 1316/2/5 1321/2/5
f 1328/1/5 1317/1/5 1316/1/5
f 1328/2/5 1316/2/5 1327/2/5
f 1329/1/5 1317/1/5 1328/1/5
f 1330/2/5 1324/2/5 1323/2/5
f 1331/1/5 1325/1/5 1324/1/5
f 1331/2/5 1324/2/5 1330/2/5
f 1332/1/5 1325/1/5 1331/1/5
f 1336/1/5 1327/1/5 1326/1/5
f 1337/2/5 1328/2/5 1327/2/5
f 1337/1/5 1327/1/5 1336/1/5
f 1338/2/5 1328/2/5 1337/2/5
f 1339/2/5 1334/2/5 1333/2/5
f 1339/2/5 1332/2/5 1331/2/5
f 1339/2/5 1333/2/5 1332/2/5
f 1340/2/5 1334/2/5 1339/2/5
f 1346/2/5 1336/2/5 1335/2/5
f 1346/2/5 1337/2/5 1336/2/5
f 1347/2/5 1337/2/5 1346/2/5
f 1348/1/5 1341/1/5 1340/1/5
f 1348/1/5 1342/1/5 1341/1/5
f 1349/2/5 1343/2/5 1342/2/5
f 1349/1/5 1342/1/5 1348/1/5
f 1350/1/5 1344/1/5 1343/1/5
f 1350/2/5 1343/2/5 1349/2/5
f 1351/2/5 1345/2/5 1344/2/5
f 1351/1/5 1344/1/5 1350/1/5
f 1351/2/5 1346/2/5 1345/2/5
f 1352/2/5 1346/2/5 1351/2/5
f 1358/1/5 1354/1/5 1353/1/5
f 1359/2/5 1355/2/5 1354/2/5
f 1359/1/5 1354/1/5 1358/1/5
f 1360/2/5 1355/2/5 1359/2/5
f 1365/2/5 1357/2/5 1356/2/5
f 1366/2/5 1357/2/5 1365/2/5
f 1367/2/5 1362/2/5 1361/2/5
f 1368/2/5 1362/2/5 1367/2/5
f 1369/2/5 1362/2/5 1368/2/5
f 1373/2/5 1364/2/5 1363/2/5
f 1374/2/5 1364/2/5 1373/2/5
f 1375/2/5 1371/2/5 1370/2/5
f 1376/2/5 1371/2/5 1375/2/5
f 1379/2/5 1373/2/5 1372/2/5
f 1380/2/5 1373/2/5 1379/2/5
f 1381/2/5 1377/2/5 1376/2/5
f 1382/2/5 1377/2/5 1381/2/5
f 1384/1/5 1379/1/5 1378/1/5
f 1385/1/5 1379/1/5 1384/1/5
f 1386/2/5 1383/2/5 1382/2/5
f 1387/2/5 1385/2/5 1384/2/5
f 1388/2/5 1383/2/5 1386/2/5
f 1389/2/5 1383/2/5 1388/2/5
f 1390/2/5 1387/2/5 1384/2/5
f 1391/2/5 1387/2/5 1390/2/5
f 1394/1/5 1389/1/5 1388/1/5
f 1395/1/5 1389/1/5 1394/1/5
f 1396/2/5 1392/2/5 1391/2/5
f 1397/2/5 1392/2/5 1396/2/5
f 1400/2/5 1394/2/5 1393/2/5
f 1401/2/5 1394/2/5 1400/2/5
f 1402/1/5 1398/1/5 1397/1/5
f 1403/1/5 1398/1/5 1402/1/5
f 1409/2/5 1400/2/5 1399/2/5
f 1410/2/5 1400/2/5 1409/2/5
f 1411/2/5 1405/2/5 1404/2/5
f 1412/1/5 1406/1/5 1405/1/5
f 1412/2/5 1405/2/5 1411/2/5
f 1413/1/5 1406/1/5 1412/1/5
f 1419/1/5 1408/1/5 1407/1/5
f 1420/1/5 1408/1/5 1419/1/5
f 1421/1/5 1415/1/5 1414/1/5
f 1422/2/5 1416/2/5 1415/2/5
f 1422/1/5 1415/1/5 1421/1/5
f 1423/1/5 1418/1/5 1417/1/5
f 1423/2/5 1416/2/5 1422/2/5
f 1423/1/5 1417/1/5 1416/1/5
f 1424/1/5 1418/1/5 1423/1/5
f 1432/2/5 1426/2/5 1425/2/5
f 1433/1/5 1427/1/5 1426/1/5
f 1433/2/5 1426/2/5 1432/2/5
f 1434/1/5 1427/1/5 1433/1/5
f 1435/2/5 1429/2/5 1428/2/5
f 1436/2/5 1429/2/5 1435/2/5
f 1437/2/5 1429/2/5 1436/2/5
f 1442/2/5 1431/2/5 1430/2/5
f 1443/2/5 1431/2/5 1442/2/5
f 1444/2/5 1439/2/5 1438/2/5
f 1445/2/5 1439/2/5 1444/2/5
f 1449/2/5 1441/2/5 1440/2/5
f 1450/2/5 1441/2/5 1449/2/5
f 1451/2/5 1447/2/5 1446/2/5
f 1452/2/5 1447/2/5 1451/2/5
f 1455/2/5 1449/2/5 1448/2/5
f 1456/2/5 1449/2/5 1455/2/5
f 1457/2/5 1453/2/5 1452/2/5
f 1458/2/5 1453/2/5 1457/2/5
f 1460/1/5 1455/1/5 1454/1/5
f 1461/2/5 1459/2/5 1458/2/5
f 1462/2/5 1459/2/5 1461/2/5
f 1463/1/5 1460/1/5 1454/1/5
f 1464/1/5 1460/1/5 1463/1/5
f 1465/1/5 1462/1/5 1461/1/5
f 1466/1/5 1462/1/5 1465/1/5
f 1467/2/5 1464/2/5 1463/2/5
f 1468/2/5 1464/2/5 1467/2/5
f 1471/2/5 1466/2/5 1465/2/5
f 1472/2/5 1466/2/5 1471/2/5
f 1473/1/5 1469/1/5 1468/1/5
f 1474/1/5 1469/1/5 1473/1/5
f 1477/1/5 1471/1/5 1470/1/5
f 1478/1/5 1471/1/5 1477/1/5
f 1479/1/5 1475/1/5 1474/1/5
f 1480/1/5 1475/1/5 1479/1/5
f 1485/1/5 1477/1/5 1476/1/5
f 1486/1/5 1477/1/5 1485/1/5
f 1487/2/5 1482/2/5 1481/2/5
f 1488/2/5 1482/2/5 1487/2/5
f 1494/2/5 1484/2/5 1483/2/5
f 1495/2/5 1484/2/5 1494/2/5
f 1496/1/5 1490/1/5 1489/1/5
f 1497/1/5 1490/1/5 1496/1/5
f 1498/1/5 1493/1/5 1492/1/5
f 1498/1/5 1492/1/5 1491/1/5
f 1499/1/5 1493/1/5 1498/1/5
f 1500/2/6 1501/2/6 1507/2/6
f 1501/1/6 1502/1/6 1508/1/6
f 1507/2/6 1501/2/6 1508/2/6
f 1508/1/6 1502/1/6 1509/1/6
f 1503/2/6 1504/2/6 1510/2/6
f 1510/2/6 1504/2/6 1511/2/6
f 1505/1/6 1506/1/6 1516/1/6
f 1516/1/6 1506/1/6 1517/1/6
f 1512/1/6 1513/1/6 1518/1/6
f 1518/1/6 1513/1/6 1519/1/6
f 1514/2/6 1515/2/6 1523/2/6
f 1523/2/6 1515/2/6 1524/2/6
f 1520/1/6 1521/1/6 1525/1/6
f 1525/1/6 1521/1/6 1526/1/6
f 1522/1/6 1523/1/6 1529/1/6
f 1529/1/6 1523/1/6 1530/1/6
f 1526/1/6 1527/1/6 1531/1/6
f 1531/1/6 1527/1/6 1532/1/6
f 1528/2/6 1529/2/6 1534/2/6
f 1534/2/6 1529/2/6 1535/2/6
f 1532/1/6 1533/1/6 1536/1/6
f 1534/1/6 1535/1/6 1537/1/6
f 1537/1/6 1535/1/6 1538/1/6
f 1536/1/6 1533/1/6 1539/1/6
f 1539/1/6 1533/1/6 1540/1/6
f 1537/2/6 1538/2/6 1541/2/6
f 1541/2/6 1538/2/6 1542/2/6
f 1539/2/6 1540/2/6 1545/2/6
f 1545/2/6 1540/2/6 1546/2/6
f 1542/1/6 1543/1/6 1547/1/6
f 1547/1/6 1543/1/6 1548/1/6
f 1544/1/6 1545/1/6 1551/1/6
f 1551/1/6 1545/1/6 1552/1/6
f 1548/2/6 1549/2/6 1553/2/6
f 1553/2/6 1549/2/6 1554/2/6
f 1550/2/6 1551/2/6 1559/2/6
f 1559/2/6 1551/2/6 1560/2/6
f 1555/2/6 1556/2/6 1561/2/6
f 1561/2/6 1556/2/6 1562/2/6
f 1557/1/6 1558/1/6 1569/1/6
f 1569/1/6 1558/1/6 1570/1/6
f 1563/1/6 1564/1/6 1571/1/6
f 1564/2/6 1565/2/6 1572/2/6
f 1571/1/6 1564/1/6 1572/1/6
f 1572/2/6 1565/2/6 1573/2/6
f 1566/1/6 1567/1/6 1574/1/6
f 1567/2/6 1568/2/6 1575/2/6
f 1574/1/6 1567/1/6 1575/1/6
f 1575/2/6 1568/2/6 1576/2/6
f 1577/2/6 1578/2/6 1584/2/6
f 1578/1/6 1579/1/6 1585/1/6
f 1584/2/6 1578/2/6 1585/2/6
f 1579/2/6 1580/2/6 1586/2/6
f 1585/1/6 1579/1/6 1586/1/6
f 1586/2/6 1580/2/6 1587/2/6
f 1587/2/6 1580/2/6 1588/2/6
f 1581/1/6 1582/1/6 1593/1/6
f 1582/2/6 1583/2/6 1594/2/6
f 1593/1/6 1582/1/6 1594/1/6
f 1594/2/6 1583/2/6 1595/2/6
f 1589/1/6 1590/1/6 1596/1/6
f 1596/1/6 1590/1/6 1597/1/6
f 1591/2/6 1592/2/6 1601/2/6
f 1601/2/6 1592/2/6 1602/2/6
f 1598/1/6 1599/1/6 1603/1/6
f 1603/1/6 1599/1/6 1604/1/6
f 1600/1/6 1601/1/6 1607/1/6
f 1607/1/6 1601/1/6 1608/1/6
f 1604/1/6 1605/1/6 1609/1/6
f 1609/1/6 1605/1/6 1610/1/6
f 1606/2/6 1607/2/6 1612/2/6
f 1612/2/6 1607/2/6 1613/2/6
f 1610/1/6 1611/1/6 1614/1/6
f 1614/1/6 1611/1/6 1615/1/6
f 1614/2/6 1615/2/6 1616/2/6
f 1616/2/6 1615/2/6 1617/2/6
f 1612/1/6 1613/1/6 1618/1/6
f 1618/1/6 1613/1/6 1619/1/6
f 1616/1/6 1617/1/6 1622/1/6
f 1622/1/6 1617/1/6 1623/1/6
f 1619/1/6 1620/1/6 1624/1/6
f 1624/1/6 1620/1/6 1625/1/6
f 1621/2/6 1622/2/6 1628/2/6
f 1628/2/6 1622/2/6 1629/2/6
f 1625/2/6 1626/2/6 1630/2/6
f 1630/2/6 1626/2/6 1631/2/6
f 1627/1/6 1628/1/6 1638/1/6
f 1638/1/6 1628/1/6 1639/1/6
f 1632/1/6 1633/1/6 1640/1/6
f 1633/2/6 1634/2/6 1641/2/6
f 1640/1/6 1633/1/6 1641/1/6
f 1641/2/6 1634/2/6 1642/2/6
f 1635/1/6 1636/1/6 1648/1/6
f 1636/2/6 1637/2/6 1649/2/6
f 1648/1/6 1636/1/6 1649/1/6
f 1649/2/6 1637/2/6 1650/2/6
f 1643/2/6 1644/2/6 1651/2/6
f 1644/1/6 1645/1/6 1652/1/6
f 1651/2/6 1644/2/6 1652/2/6
f 1645/2/6 1646/2/6 1653/2/6
f 1652/1/6 1645/1/6 1653/1/6
f 1646/1/6 1647/1/6 1654/1/6
f 1653/2/6 1646/2/6 1654/2/6
f 1654/1/6 1647/1/6 1655/1/6
f 1656/1/6 1657/1/6 1663/1/6
f 1663/1/6 1657/1/6 1664/1/6
f 1657/2/6 1658/2/6 1665/2/6
f 1664/1/6 1657/1/6 1665/1/6
f 1665/2/6 1658/2/6 1666/2/6
f 1658/1/6 1659/1/6 1667/1/6
f 1666/2/6 1658/2/6 1667/2/6
f 1667/1/6 1659/1/6 1668/1/6
f 1659/2/6 1660/2/6 1669/2/6
f 1668/1/6 1659/1/6 1669/1/6
f 1660/1/6 1661/1/6 1670/1/6
f 1669/2/6 1660/2/6 1670/2/6
f 1670/1/6 1661/1/6 1671/1/6
f 1662/2/6 1663/2/6 1674/2/6
f 1674/2/6 1663/2/6 1675/2/6
f 1675/2/6 1663/2/6 1676/2/6
f 1676/2/6 1663/2/6 1677/2/6
f 1671/1/6 1672/1/6 1678/1/6
f 1678/1/6 1672/1/6 1679/1/6
f 1679/1/6 1672/1/6 1680/1/6
f 1680/1/6 1672/1/6 1681/1/6
f 1673/1/6 1674/1/6 1684/1/6
f 1674/1/6 1675/1/6 1684/1/6
f 1684/1/6 1675/1/6 1685/1/6
f 1685/1/6 1675/1/6 1686/1/6
f 1681/1/6 1682/1/6 1687/1/6
f 1680/1/6 1681/1/6 1687/1/6
f 1687/1/6 1682/1/6 1688/1/6
f 1688/1/6 1682/1/6 1689/1/6
f 1684/2/6 1685/2/6 1691/2/6
f 1683/1/6 1684/1/6 1691/1/6
f 1691/2/6 1685/2/6 1692/2/6
f 1689/1/6 1690/1/6 1693/1/6
f 1688/2/6 1689/2/6 1693/2/6
f 1693/1/6 1690/1/6 1694/1/6
f 1691/1/6 1692/1/6 1695/1/6
f 1683/1/6 1691/1/6 1695/1/6
f 1695/1/6 1692/1/6 1696/1/6
f 1693/2/6 1694/2/6 1697/2/6
f 1688/2/6 1693/2/6 1697/2/6
f 1683/1/6 1695/1/6 1698/1/6
f 1695/2/6 1696/2/6 1699/2/6
f 1698/1/6 1695/1/6 1699/1/6
f 1699/2/6 1696/2/6 1700/2/6
f 1697/2/6 1694/2/6 1703/2/6
f 1703/2/6 1694/2/6 1704/2/6
f 1704/2/6 1694/2/6 1705/2/6
f 1700/1/6 1701/1/6 1706/1/6
f 1699/1/6 1700/1/6 1706/1/6
f 1706/1/6 1701/1/6 1707/1/6
f 1707/1/6 1701/1/6 1708/1/6
f 1703/1/6 1704/1/6 1713/1/6
f 1702/1/6 1703/1/6 1713/1/6
f 1713/1/6 1704/1/6 1714/1/6
f 1714/1/6 1704/1/6 1715/1/6
f 1707/2/6 1708/2/6 1716/2/6
f 1708/2/6 1709/2/6 1716/2/6
f 1709/1/6 1710/1/6 1717/1/6
f 1716/2/6 1709/2/6 1717/2/6
f 1717/1/6 1710/1/6 1718/1/6
f 1711/2/6 1712/2/6 1724/2/6
f 1713/2/6 1714/2/6 1724/2/6
f 1712/2/6 1713/2/6 1724/2/6
f 1724/2/6 1714/2/6 1725/2/6
f 1721/2/6 1722/2/6 1726/2/6
f 1720/2/6 1721/2/6 1726/2/6
f 1719/2/6 1720/2/6 1726/2/6
f 1718/2/6 1719/2/6 1726/2/6
f 1722/1/6 1723/1/6 1727/1/6
f 1726/2/6 1722/2/6 1727/2/6
f 1723/2/6 1724/2/6 1728/2/6
f 1727/1/6 1723/1/6 1728/1/6
f 1728/2/6 1724/2/6 1729/2/6
f 1730/1/6 1731/1/6 1737/1/6
f 1731/2/6 1732/2/6 1738/2/6
f 1737/1/6 1731/1/6 1738/1/6
f 1738/2/6 1732/2/6 1739/2/6
f 1732/1/6 1733/1/6 1740/1/6
f 1739/2/6 1732/2/6 1740/2/6
f 1733/2/6 1734/2/6 1741/2/6
f 1740/1/6 1733/1/6 1741/1/6
f 1741/2/6 1734/2/6 1742/2/6
f 1742/2/6 1734/2/6 1743/2/6
f 1743/2/6 1734/2/6 1744/2/6
f 1735/2/6 1736/2/6 1748/2/6
f 1736/1/6 1737/1/6 1749/1/6
f 1738/2/6 1739/2/6 1749/2/6
f 1737/2/6 1738/2/6 1749/2/6
f 1749/2/6 1739/2/6 1750/2/6
f 1743/1/6 1744/1/6 1751/1/6
f 1751/1/6 1744/1/6 1752/1/6
f 1744/2/6 1745/2/6 1753/2/6
f 1752/1/6 1744/1/6 1753/1/6
f 1745/1/6 1746/1/6 1754/1/6
f 1747/2/6 1748/2/6 1756/2/6
f 1748/2/6 1736/2/6 1756/2/6
f 1736/1/6 1749/1/6 1757/1/6
f 1756/2/6 1736/2/6 1757/2/6
f 1757/1/6 1749/1/6 1758/1/6
f 1745/1/6 1754/1/6 1759/1/6
f 1753/2/6 1745/2/6 1759/2/6
f 1754/2/6 1755/2/6 1760/2/6
f 1759/1/6 1754/1/6 1760/1/6
f 1747/2/6 1756/2/6 1761/2/6
f 1757/1/6 1758/1/6 1762/1/6
f 1761/2/6 1756/2/6 1762/2/6
f 1756/1/6 1757/1/6 1762/1/6
f 1762/1/6 1758/1/6 1763/1/6
f 1753/2/6 1759/2/6 1764/2/6
f 1759/2/6 1760/2/6 1764/2/6
f 1760/2/6 1755/2/6 1765/2/6
f 1764/2/6 1760/2/6 1765/2/6
f 1765/2/6 1755/2/6 1766/2/6
f 1761/1/6 1762/1/6 1767/1/6
f 1762/2/6 1763/2/6 1768/2/6
f 1767/1/6 1762/1/6 1768/1/6
f 1768/2/6 1763/2/6 1769/2/6
f 1769/2/6 1763/2/6 1770/2/6
f 1764/2/6 1765/2/6 1774/2/6
f 1774/2/6 1765/2/6 1775/2/6
f 1765/1/6 1766/1/6 1776/1/6
f 1775/2/6 1765/2/6 1776/2/6
f 1776/1/6 1766/1/6 1777/1/6
f 1768/1/6 1769/1/6 1778/1/6
f 1769/2/6 1770/2/6 1779/2/6
f 1778/1/6 1769/1/6 1779/1/6
f 1770/2/6 1771/2/6 1779/2/6
f 1779/2/6 1771/2/6 1780/2/6
f 1771/1/6 1772/1/6 1781/1/6
f 1773/2/6 1774/2/6 1785/2/6
f 1785/2/6 1774/2/6 1786/2/6
f 1774/1/6 1775/1/6 1787/1/6
f 1786/2/6 1774/2/6 1787/2/6
f 1775/2/6 1776/2/6 1788/2/6
f 1787/1/6 1775/1/6 1788/1/6
f 1788/2/6 1776/2/6 1789/2/6
f 1780/2/6 1771/2/6 1790/2/6
f 1771/1/6 1781/1/6 1791/1/6
f 1790/2/6 1771/2/6 1791/2/6
f 1781/1/6 1782/1/6 1791/1/6
f 1782/1/6 1783/1/6 1791/1/6
f 1783/2/6 1784/2/6 1792/2/6
f 1791/1/6 1783/1/6 1792/1/6
f 1785/1/6 1786/1/6 1793/1/6
f 1792/2/6 1784/2/6 1793/2/6
f 1784/1/6 1785/1/6 1793/1/6
f 1786/2/6 1787/2/6 1794/2/6
f 1793/1/6 1786/1/6 1794/1/6
f 1794/2/6 1787/2/6 1795/2/6
f 1796/1/6 1797/1/6 1802/1/6
f 1797/2/6 1798/2/6 1803/2/6
f 1798/1/6 1799/1/6 1804/1/6
f 1803/2/6 1798/2/6 1804/2/6
f 1799/2/6 1800/2/6 1805/2/6
f 1804/1/6 1799/1/6 1805/1/6
f 1805/2/6 1800/2/6 1806/2/6
f 1801/2/6 1802/2/6 1809/2/6
f 1802/1/6 1797/1/6 1810/1/6
f 1809/2/6 1802/2/6 1810/2/6
f 1797/2/6 1803/2/6 1811/2/6
f 1810/1/6 1797/1/6 1811/1/6
f 1803/1/6 1804/1/6 1812/1/6
f 1811/2/6 1803/2/6 1812/2/6
f 1804/2/6 1805/2/6 1813/2/6
f 1812/1/6 1804/1/6 1813/1/6
f 1805/1/6 1806/1/6 1814/1/6
f 1813/2/6 1805/2/6 1814/2/6
f 1806/2/6 1807/2/6 1815/2/6
f 1814/1/6 1806/1/6 1815/1/6
f 1807/1/6 1808/1/6 1816/1/6
f 1815/2/6 1807/2/6 1816/2/6
f 1809/1/6 1810/1/6 1817/1/6
f 1817/1/6 1810/1/6 1818/1/6
f 1810/2/6 1811/2/6 1819/2/6
f 1818/1/6 1810/1/6 1819/1/6
f 1811/1/6 1812/1/6 1820/1/6
f 1819/2/6 1811/2/6 1820/2/6
f 1812/1/6 1813/1/6 1820/1/6
f 1813/1/6 1814/1/6 1820/1/6
f 1820/1/6 1814/1/6 1821/1/6
f 1814/2/6 1815/2/6 1822/2/6
f 1815/1/6 1816/1/6 1822/1/6
f 1816/1/6 1808/1/6 1823/1/6
f 1822/1/6 1816/1/6 1823/1/6
f 1817/2/6 1818/2/6 1824/2/6
f 1818/1/6 1819/1/6 1825/1/6
f 1824/2/6 1818/2/6 1825/2/6
f 1819/1/6 1820/1/6 1825/1/6
f 1825/1/6 1820/1/6 1826/1/6
f 1821/1/6 1814/1/6 1827/1/6
f 1820/2/6 1821/2/6 1827/2/6
f 1814/2/6 1822/2/6 1828/2/6
f 1827/1/6 1814/1/6 1828/1/6
f 1822/2/6 1823/2/6 1828/2/6
f 1828/2/6 1823/2/6 1829/2/6
f 1829/2/6 1823/2/6 1830/2/6
f 1826/1/6 1820/1/6 1831/1/6
f 1820/2/6 1827/2/6 1832/2/6
f 1831/1/6 1820/1/6 1832/1/6
f 1828/2/6 1829/2/6 1832/2/6
f 1827/2/6 1828/2/6 1832/2/6
f 1832/2/6 1829/2/6 1833/2/6
