# MagicaVoxel @ Ephtracy

# group
o 

# material
mtllib hull-0.mtl
usemtl palette

# normals
vn -1 0 0
vn 1 0 0
vn 0 0 1
vn 0 0 -1
vn 0 -1 0
vn 0 1 0

# texcoords
vt 0.236328 0.5
vt 0.244141 0.5
vt 0.248047 0.5

# verts
v -1 0.15 0.05
v -1 0.15 -0.05
v -1 0.25 0.05
v -1 0.25 -0.05
v -0.8 0.05 0.05
v -0.8 0.05 -0.05
v -0.8 0.15 0.05
v -0.8 0.15 -0.05
v -0.6 -0.05 0.05
v -0.6 -0.05 -0.05
v -0.6 0.05 0.05
v -0.6 0.05 -0.05
v -0.6 0.15 0.15
v -0.6 0.15 0.05
v -0.6 0.15 -0.05
v -0.6 0.15 -0.15
v -0.6 0.25 0.15
v -0.6 0.25 0.05
v -0.6 0.25 -0.05
v -0.6 0.25 -0.15
v -0.4 -0.15 0.05
v -0.4 -0.15 -0.05
v -0.4 -0.05 0.05
v -0.4 -0.05 -0.05
v -0.4 0.05 0.15
v -0.4 0.05 0.05
v -0.4 0.05 -0.05
v -0.4 0.05 -0.15
v -0.4 0.15 0.25
v -0.4 0.15 0.15
v -0.4 0.15 0.05
v -0.4 0.15 -0.05
v -0.4 0.15 -0.15
v -0.4 0.15 -0.25
v -0.4 0.25 0.25
v -0.4 0.25 0.15
v -0.4 0.25 -0.15
v -0.4 0.25 -0.25
v -0.2 -0.25 0.05
v -0.2 -0.25 -0.05
v -0.2 -0.15 0.05
v -0.2 -0.15 -0.05
v -0.2 -0.05 0.15
v -0.2 -0.05 0.05
v -0.2 -0.05 -0.05
v -0.2 -0.05 -0.15
v -0.2 0.05 0.25
v -0.2 0.05 0.15
v -0.2 0.05 0.05
v -0.2 0.05 -0.05
v -0.2 0.05 -0.15
v -0.2 0.05 -0.25
v -0.2 0.15 0.25
v -0.2 0.15 0.15
v -0.2 0.15 -0.15
v -0.2 0.15 -0.25
v 0 -0.15 0.15
v 0 -0.15 0.05
v 0 -0.15 -0.05
v 0 -0.15 -0.15
v 0 -0.05 0.25
v 0 -0.05 0.15
v 0 -0.05 0.05
v 0 -0.05 -0.05
v 0 -0.05 -0.15
v 0 -0.05 -0.25
v 0 0.05 0.25
v 0 0.05 0.15
v 0 0.05 -0.15
v 0 0.05 -0.25
v 0.4 0.05 0.25
v 0.4 0.05 0.15
v 0.4 0.05 -0.15
v 0.4 0.05 -0.25
v 0.4 0.15 0.25
v 0.4 0.15 0.15
v 0.4 0.15 -0.15
v 0.4 0.15 -0.25
v 0.6 0.05 0.15
v 0.6 0.05 0.05
v 0.6 0.05 -0.05
v 0.6 0.05 -0.15
v 0.6 0.15 0.25
v 0.6 0.15 0.15
v 0.6 0.15 0.05
v 0.6 0.15 -0.05
v 0.6 0.15 -0.15
v 0.6 0.15 -0.25
v 0.6 0.25 0.25
v 0.6 0.25 0.15
v 0.6 0.25 -0.15
v 0.6 0.25 -0.25
v 0.7 -0.05 0.05
v 0.7 -0.05 -0.05
v 0.7 0.15 0.05
v 0.7 0.15 -0.05
v -0.2 -0.05 0.05
v -0.2 -0.05 -0.05
v -0.2 0.15 0.05
v -0.2 0.15 -0.05
v -0.1 0.05 0.15
v -0.1 0.05 0.05
v -0.1 0.05 -0.05
v -0.1 0.05 -0.15
v -0.1 0.15 0.25
v -0.1 0.15 0.15
v -0.1 0.15 0.05
v -0.1 0.15 -0.05
v -0.1 0.15 -0.15
v -0.1 0.15 -0.25
v -0.1 0.25 0.25
v -0.1 0.25 -0.25
v 0.1 0.05 0.25
v 0.1 0.05 0.15
v 0.1 0.05 -0.15
v 0.1 0.05 -0.25
v 0.1 0.15 0.25
v 0.1 0.15 0.15
v 0.1 0.15 -0.15
v 0.1 0.15 -0.25
v 0.5 -0.15 0.15
v 0.5 -0.15 0.05
v 0.5 -0.15 -0.05
v 0.5 -0.15 -0.15
v 0.5 -0.05 0.15
v 0.5 -0.05 0.05
v 0.5 -0.05 -0.05
v 0.5 -0.05 -0.15
v 0.7 -0.25 0.05
v 0.7 -0.25 -0.05
v 0.7 -0.15 0.05
v 0.7 -0.15 -0.05
v 0.7 -0.05 0.25
v 0.7 -0.05 0.15
v 0.7 -0.05 -0.15
v 0.7 -0.05 -0.25
v 0.7 0.05 0.25
v 0.7 0.05 0.15
v 0.7 0.05 -0.15
v 0.7 0.05 -0.25
v 0.9 -0.15 0.05
v 0.9 -0.15 -0.05
v 0.9 -0.05 0.15
v 0.9 -0.05 0.05
v 0.9 -0.05 -0.05
v 0.9 -0.05 -0.15
v 0.9 0.05 0.25
v 0.9 0.05 0.15
v 0.9 0.05 -0.15
v 0.9 0.05 -0.25
v 0.9 0.15 0.25
v 0.9 0.15 0.15
v 0.9 0.15 0.05
v 0.9 0.15 -0.05
v 0.9 0.15 -0.15
v 0.9 0.15 -0.25
v 0.9 0.25 0.25
v 0.9 0.25 0.15
v 0.9 0.25 -0.15
v 0.9 0.25 -0.25
v 1 -0.05 0.05
v 1 -0.05 -0.05
v 1 0.15 0.15
v 1 0.15 0.05
v 1 0.15 -0.05
v 1 0.15 -0.15
v 1 0.25 0.15
v 1 0.25 -0.15
v -0.4 0.15 0.25
v -0.4 0.25 0.25
v -0.2 0.05 0.25
v -0.2 0.15 0.25
v -0.1 0.15 0.25
v -0.1 0.25 0.25
v 0 -0.05 0.25
v 0 0.05 0.25
v 0.1 0.05 0.25
v 0.1 0.15 0.25
v 0.4 0.05 0.25
v 0.4 0.15 0.25
v 0.5 -0.05 0.25
v 0.5 0.05 0.25
v 0.6 0.15 0.25
v 0.6 0.25 0.25
v 0.7 -0.05 0.25
v 0.7 0.05 0.25
v 0.7 0.15 0.25
v 0.9 0.05 0.25
v 0.9 0.15 0.25
v 0.9 0.25 0.25
v -0.6 0.15 0.15
v -0.6 0.25 0.15
v -0.4 0.05 0.15
v -0.4 0.15 0.15
v -0.4 0.25 0.15
v -0.2 -0.05 0.15
v -0.2 0.05 0.15
v -0.2 0.15 0.15
v 0 -0.15 0.15
v 0 -0.05 0.15
v 0 0.05 0.15
v 0.5 -0.15 0.15
v 0.5 -0.05 0.15
v 0.7 -0.05 0.15
v 0.7 0.05 0.15
v 0.9 -0.05 0.15
v 0.9 0.05 0.15
v 0.9 0.15 0.15
v 0.9 0.25 0.15
v 1 0.15 0.15
v 1 0.25 0.15
v -1 0.15 0.05
v -1 0.25 0.05
v -0.8 0.05 0.05
v -0.8 0.15 0.05
v -0.6 -0.05 0.05
v -0.6 0.05 0.05
v -0.6 0.15 0.05
v -0.6 0.25 0.05
v -0.4 -0.15 0.05
v -0.4 -0.05 0.05
v -0.4 0.05 0.05
v -0.4 0.15 0.05
v -0.2 -0.25 0.05
v -0.2 -0.15 0.05
v -0.2 -0.05 0.05
v -0.2 0.05 0.05
v 0 -0.15 0.05
v 0 -0.05 0.05
v 0.5 -0.15 0.05
v 0.5 -0.05 0.05
v 0.7 -0.25 0.05
v 0.7 -0.15 0.05
v 0.7 -0.05 0.05
v 0.9 -0.15 0.05
v 0.9 -0.05 0.05
v 0.9 0.15 0.05
v 1 -0.05 0.05
v 1 0.15 0.05
v -0.2 -0.05 -0.05
v -0.2 0.15 -0.05
v -0.1 0.05 -0.05
v -0.1 0.15 -0.05
v 0.6 0.05 -0.05
v 0.6 0.15 -0.05
v 0.7 -0.05 -0.05
v 0.7 0.15 -0.05
v -0.1 0.05 -0.15
v -0.1 0.15 -0.15
v 0.1 0.05 -0.15
v 0.1 0.15 -0.15
v 0.4 0.05 -0.15
v 0.4 0.15 -0.15
v 0.6 0.05 -0.15
v 0.6 0.15 -0.15
v -0.1 0.05 0.15
v -0.1 0.15 0.15
v 0.1 0.05 0.15
v 0.1 0.15 0.15
v 0.4 0.05 0.15
v 0.4 0.15 0.15
v 0.6 0.05 0.15
v 0.6 0.15 0.15
v -0.2 -0.05 0.05
v -0.2 0.15 0.05
v -0.1 0.05 0.05
v -0.1 0.15 0.05
v 0.6 0.05 0.05
v 0.6 0.15 0.05
v 0.7 -0.05 0.05
v 0.7 0.15 0.05
v -1 0.15 -0.05
v -1 0.25 -0.05
v -0.8 0.05 -0.05
v -0.8 0.15 -0.05
v -0.6 -0.05 -0.05
v -0.6 0.05 -0.05
v -0.6 0.15 -0.05
v -0.6 0.25 -0.05
v -0.4 -0.15 -0.05
v -0.4 -0.05 -0.05
v -0.4 0.05 -0.05
v -0.4 0.15 -0.05
v -0.2 -0.25 -0.05
v -0.2 -0.15 -0.05
v -0.2 -0.05 -0.05
v -0.2 0.05 -0.05
v 0 -0.15 -0.05
v 0 -0.05 -0.05
v 0.5 -0.15 -0.05
v 0.5 -0.05 -0.05
v 0.7 -0.25 -0.05
v 0.7 -0.15 -0.05
v 0.7 -0.05 -0.05
v 0.9 -0.15 -0.05
v 0.9 -0.05 -0.05
v 0.9 0.15 -0.05
v 1 -0.05 -0.05
v 1 0.15 -0.05
v -0.6 0.15 -0.15
v -0.6 0.25 -0.15
v -0.4 0.05 -0.15
v -0.4 0.15 -0.15
v -0.4 0.25 -0.15
v -0.2 -0.05 -0.15
v -0.2 0.05 -0.15
v -0.2 0.15 -0.15
v 0 -0.15 -0.15
v 0 -0.05 -0.15
v 0 0.05 -0.15
v 0.5 -0.15 -0.15
v 0.5 -0.05 -0.15
v 0.7 -0.05 -0.15
v 0.7 0.05 -0.15
v 0.9 -0.05 -0.15
v 0.9 0.05 -0.15
v 0.9 0.15 -0.15
v 0.9 0.25 -0.15
v 1 0.15 -0.15
v 1 0.25 -0.15
v -0.4 0.15 -0.25
v -0.4 0.25 -0.25
v -0.2 0.05 -0.25
v -0.2 0.15 -0.25
v -0.1 0.15 -0.25
v -0.1 0.25 -0.25
v 0 -0.05 -0.25
v 0 0.05 -0.25
v 0.1 0.05 -0.25
v 0.1 0.15 -0.25
v 0.4 0.05 -0.25
v 0.4 0.15 -0.25
v 0.5 -0.05 -0.25
v 0.5 0.05 -0.25
v 0.6 0.15 -0.25
v 0.6 0.25 -0.25
v 0.7 -0.05 -0.25
v 0.7 0.05 -0.25
v 0.7 0.15 -0.25
v 0.9 0.05 -0.25
v 0.9 0.15 -0.25
v 0.9 0.25 -0.25
v -0.2 -0.25 0.05
v 0.7 -0.25 0.05
v -0.2 -0.25 -0.05
v 0.7 -0.25 -0.05
v 0 -0.15 0.15
v 0.5 -0.15 0.15
v -0.4 -0.15 0.05
v -0.2 -0.15 0.05
v 0 -0.15 0.05
v 0.5 -0.15 0.05
v 0.7 -0.15 0.05
v 0.9 -0.15 0.05
v -0.4 -0.15 -0.05
v -0.2 -0.15 -0.05
v 0 -0.15 -0.05
v 0.5 -0.15 -0.05
v 0.7 -0.15 -0.05
v 0.9 -0.15 -0.05
v 0 -0.15 -0.15
v 0.5 -0.15 -0.15
v 0 -0.05 0.25
v 0.5 -0.05 0.25
v 0.7 -0.05 0.25
v -0.2 -0.05 0.15
v 0 -0.05 0.15
v 0.5 -0.05 0.15
v 0.7 -0.05 0.15
v 0.9 -0.05 0.15
v -0.6 -0.05 0.05
v -0.4 -0.05 0.05
v -0.2 -0.05 0.05
v 0 -0.05 0.05
v 0.5 -0.05 0.05
v 0.7 -0.05 0.05
v 0.9 -0.05 0.05
v 1 -0.05 0.05
v -0.6 -0.05 -0.05
v -0.4 -0.05 -0.05
v -0.2 -0.05 -0.05
v 0 -0.05 -0.05
v 0.5 -0.05 -0.05
v 0.7 -0.05 -0.05
v 0.9 -0.05 -0.05
v 1 -0.05 -0.05
v -0.2 -0.05 -0.15
v 0 -0.05 -0.15
v 0.5 -0.05 -0.15
v 0.7 -0.05 -0.15
v 0.9 -0.05 -0.15
v 0 -0.05 -0.25
v 0.5 -0.05 -0.25
v 0.7 -0.05 -0.25
v -0.2 0.05 0.25
v 0 0.05 0.25
v 0.7 0.05 0.25
v 0.9 0.05 0.25
v -0.4 0.05 0.15
v -0.2 0.05 0.15
v 0 0.05 0.15
v 0.7 0.05 0.15
v 0.9 0.05 0.15
v -0.8 0.05 0.05
v -0.6 0.05 0.05
v -0.4 0.05 0.05
v -0.2 0.05 0.05
v -0.8 0.05 -0.05
v -0.6 0.05 -0.05
v -0.4 0.05 -0.05
v -0.2 0.05 -0.05
v -0.4 0.05 -0.15
v -0.2 0.05 -0.15
v 0 0.05 -0.15
v 0.7 0.05 -0.15
v 0.9 0.05 -0.15
v -0.2 0.05 -0.25
v 0 0.05 -0.25
v 0.7 0.05 -0.25
v 0.9 0.05 -0.25
v -0.4 0.15 0.25
v -0.2 0.15 0.25
v -0.6 0.15 0.15
v -0.4 0.15 0.15
v -0.2 0.15 0.15
v 0.9 0.15 0.15
v 1 0.15 0.15
v -1 0.15 0.05
v -0.8 0.15 0.05
v -0.6 0.15 0.05
v -0.4 0.15 0.05
v -0.2 0.15 0.05
v -0.1 0.15 0.05
v 0.6 0.15 0.05
v 0.7 0.15 0.05
v 0.9 0.15 0.05
v 1 0.15 0.05
v -1 0.15 -0.05
v -0.8 0.15 -0.05
v -0.6 0.15 -0.05
v -0.4 0.15 -0.05
v -0.2 0.15 -0.05
v -0.1 0.15 -0.05
v 0.6 0.15 -0.05
v 0.7 0.15 -0.05
v 0.9 0.15 -0.05
v 1 0.15 -0.05
v -0.6 0.15 -0.15
v -0.4 0.15 -0.15
v -0.2 0.15 -0.15
v 0.9 0.15 -0.15
v 1 0.15 -0.15
v -0.4 0.15 -0.25
v -0.2 0.15 -0.25
v -0.2 -0.05 0.05
v 0.7 -0.05 0.05
v -0.2 -0.05 -0.05
v 0.7 -0.05 -0.05
v 0.1 0.05 0.25
v 0.4 0.05 0.25
v -0.1 0.05 0.15
v 0.1 0.05 0.15
v 0.4 0.05 0.15
v 0.6 0.05 0.15
v -0.1 0.05 0.05
v 0.6 0.05 0.05
v -0.1 0.05 -0.05
v 0.6 0.05 -0.05
v -0.1 0.05 -0.15
v 0.1 0.05 -0.15
v 0.4 0.05 -0.15
v 0.6 0.05 -0.15
v 0.1 0.05 -0.25
v 0.4 0.05 -0.25
v -0.1 0.15 0.25
v 0.1 0.15 0.25
v 0.4 0.15 0.25
v 0.6 0.15 0.25
v -0.1 0.15 0.15
v 0.1 0.15 0.15
v 0.4 0.15 0.15
v 0.6 0.15 0.15
v -0.1 0.15 -0.15
v 0.1 0.15 -0.15
v 0.4 0.15 -0.15
v 0.6 0.15 -0.15
v -0.1 0.15 -0.25
v 0.1 0.15 -0.25
v 0.4 0.15 -0.25
v 0.6 0.15 -0.25
v -0.4 0.25 0.25
v -0.1 0.25 0.25
v 0.6 0.25 0.25
v 0.9 0.25 0.25
v -0.6 0.25 0.15
v -0.4 0.25 0.15
v -0.3 0.25 0.15
v -0.2 0.25 0.15
v 0.6 0.25 0.15
v 0.8 0.25 0.15
v 0.9 0.25 0.15
v 1 0.25 0.15
v -1 0.25 0.05
v -0.6 0.25 0.05
v -0.5 0.25 0.05
v -0.3 0.25 0.05
v 0.8 0.25 0.05
v 0.9 0.25 0.05
v -1 0.25 -0.05
v -0.6 0.25 -0.05
v -0.5 0.25 -0.05
v -0.3 0.25 -0.05
v 0.8 0.25 -0.05
v 0.9 0.25 -0.05
v -0.6 0.25 -0.15
v -0.4 0.25 -0.15
v -0.3 0.25 -0.15
v -0.2 0.25 -0.15
v 0.6 0.25 -0.15
v 0.8 0.25 -0.15
v 0.9 0.25 -0.15
v 1 0.25 -0.15
v -0.4 0.25 -0.25
v -0.1 0.25 -0.25
v 0.6 0.25 -0.25
v 0.9 0.25 -0.25

# faces
f 3/1/1 2/1/1 1/1/1
f 4/1/1 2/1/1 3/1/1
f 7/3/1 6/3/1 5/3/1
f 8/3/1 6/3/1 7/3/1
f 11/3/1 10/3/1 9/3/1
f 12/3/1 10/3/1 11/3/1
f 17/1/1 14/1/1 13/1/1
f 18/1/1 14/1/1 17/1/1
f 19/1/1 16/1/1 15/1/1
f 20/1/1 16/1/1 19/1/1
f 23/3/1 22/3/1 21/3/1
f 24/3/1 22/3/1 23/3/1
f 30/2/1 26/2/1 25/2/1
f 31/2/1 26/2/1 30/2/1
f 32/2/1 28/2/1 27/2/1
f 33/2/1 28/2/1 32/2/1
f 35/1/1 30/1/1 29/1/1
f 36/1/1 30/1/1 35/1/1
f 37/1/1 34/1/1 33/1/1
f 38/1/1 34/1/1 37/1/1
f 41/3/1 40/3/1 39/3/1
f 42/3/1 40/3/1 41/3/1
f 48/2/1 44/2/1 43/2/1
f 49/2/1 44/2/1 48/2/1
f 50/2/1 46/2/1 45/2/1
f 51/2/1 46/2/1 50/2/1
f 53/1/1 48/1/1 47/1/1
f 54/1/1 48/1/1 53/1/1
f 55/1/1 52/1/1 51/1/1
f 56/1/1 52/1/1 55/1/1
f 62/2/1 58/2/1 57/2/1
f 63/2/1 58/2/1 62/2/1
f 64/2/1 60/2/1 59/2/1
f 65/2/1 60/2/1 64/2/1
f 67/1/1 62/1/1 61/1/1
f 68/1/1 62/1/1 67/1/1
f 69/1/1 66/1/1 65/1/1
f 70/1/1 66/1/1 69/1/1
f 75/1/1 72/1/1 71/1/1
f 76/1/1 72/1/1 75/1/1
f 77/1/1 74/1/1 73/1/1
f 78/1/1 74/1/1 77/1/1
f 84/2/1 80/2/1 79/2/1
f 85/2/1 80/2/1 84/2/1
f 86/2/1 82/2/1 81/2/1
f 87/2/1 82/2/1 86/2/1
f 89/1/1 84/1/1 83/1/1
f 90/2/1 85/2/1 84/2/1
f 90/1/1 84/1/1 89/1/1
f 90/2/1 86/2/1 85/2/1
f 90/2/1 87/2/1 86/2/1
f 91/1/1 88/1/1 87/1/1
f 91/2/1 87/2/1 90/2/1
f 92/1/1 88/1/1 91/1/1
f 95/2/1 94/2/1 93/2/1
f 96/2/1 94/2/1 95/2/1
f 97/2/2 98/2/2 99/2/2
f 99/2/2 98/2/2 100/2/2
f 101/2/2 102/2/2 106/2/2
f 106/2/2 102/2/2 107/2/2
f 103/2/2 104/2/2 108/2/2
f 108/2/2 104/2/2 109/2/2
f 106/1/2 107/1/2 111/1/2
f 109/1/2 110/1/2 111/1/2
f 108/1/2 109/1/2 111/1/2
f 107/1/2 108/1/2 111/1/2
f 105/1/2 106/1/2 111/1/2
f 111/1/2 110/1/2 112/1/2
f 113/1/2 114/1/2 117/1/2
f 117/1/2 114/1/2 118/1/2
f 115/1/2 116/1/2 119/1/2
f 119/1/2 116/1/2 120/1/2
f 121/2/2 122/2/2 125/2/2
f 125/2/2 122/2/2 126/2/2
f 123/2/2 124/2/2 127/2/2
f 127/2/2 124/2/2 128/2/2
f 129/3/2 130/3/2 131/3/2
f 131/3/2 130/3/2 132/3/2
f 133/2/2 134/2/2 137/2/2
f 137/2/2 134/2/2 138/2/2
f 135/2/2 136/2/2 139/2/2
f 139/2/2 136/2/2 140/2/2
f 141/3/2 142/3/2 144/3/2
f 144/3/2 142/3/2 145/3/2
f 143/2/2 144/2/2 148/2/2
f 145/2/2 146/2/2 149/2/2
f 147/2/2 148/2/2 151/2/2
f 148/2/2 144/2/2 152/2/2
f 151/2/2 148/2/2 152/2/2
f 152/2/2 144/2/2 153/2/2
f 149/2/2 150/2/2 154/2/2
f 145/2/2 149/2/2 154/2/2
f 154/2/2 150/2/2 155/2/2
f 155/2/2 150/2/2 156/2/2
f 151/1/2 152/1/2 157/1/2
f 157/1/2 152/1/2 158/1/2
f 155/1/2 156/1/2 159/1/2
f 159/1/2 156/1/2 160/1/2
f 161/3/2 162/3/2 164/3/2
f 164/3/2 162/3/2 165/3/2
f 163/1/2 164/1/2 167/1/2
f 165/1/2 166/1/2 167/1/2
f 164/1/2 165/1/2 167/1/2
f 167/1/2 166/1/2 168/1/2
f 172/1/3 170/1/3 169/1/3
f 173/1/3 170/1/3 172/1/3
f 173/1/3 172/1/3 171/1/3
f 174/1/3 170/1/3 173/1/3
f 176/1/3 173/1/3 171/1/3
f 177/1/3 173/1/3 176/1/3
f 177/1/3 176/1/3 175/1/3
f 178/1/3 173/1/3 177/1/3
f 179/1/3 177/1/3 175/1/3
f 181/1/3 179/1/3 175/1/3
f 181/1/3 180/1/3 179/1/3
f 182/1/3 180/1/3 181/1/3
f 183/1/3 180/1/3 182/1/3
f 185/2/3 182/2/3 181/2/3
f 186/1/3 183/1/3 182/1/3
f 186/2/3 182/2/3 185/2/3
f 186/1/3 184/1/3 183/1/3
f 187/1/3 184/1/3 186/1/3
f 188/2/3 187/2/3 186/2/3
f 189/1/3 184/1/3 187/1/3
f 189/2/3 187/2/3 188/2/3
f 190/1/3 184/1/3 189/1/3
f 194/1/3 192/1/3 191/1/3
f 195/1/3 192/1/3 194/1/3
f 197/2/3 194/2/3 193/2/3
f 198/2/3 194/2/3 197/2/3
f 200/2/3 197/2/3 196/2/3
f 201/2/3 197/2/3 200/2/3
f 202/2/3 200/2/3 199/2/3
f 203/2/3 200/2/3 202/2/3
f 206/2/3 205/2/3 204/2/3
f 207/2/3 205/2/3 206/2/3
f 210/1/3 209/1/3 208/1/3
f 211/1/3 209/1/3 210/1/3
f 215/1/3 213/1/3 212/1/3
f 217/3/3 215/3/3 214/3/3
f 218/1/3 213/1/3 215/1/3
f 218/3/3 215/3/3 217/3/3
f 219/1/3 213/1/3 218/1/3
f 221/3/3 217/3/3 216/3/3
f 222/2/3 218/2/3 217/2/3
f 222/3/3 217/3/3 221/3/3
f 223/2/3 218/2/3 222/2/3
f 225/3/3 221/3/3 220/3/3
f 226/2/3 222/2/3 221/2/3
f 226/3/3 221/3/3 225/3/3
f 227/2/3 222/2/3 226/2/3
f 228/3/3 225/3/3 224/3/3
f 228/2/3 226/2/3 225/2/3
f 229/2/3 226/2/3 228/2/3
f 230/3/3 228/3/3 224/3/3
f 232/3/3 230/3/3 224/3/3
f 233/2/3 231/2/3 230/2/3
f 233/3/3 230/3/3 232/3/3
f 234/2/3 231/2/3 233/2/3
f 235/3/3 234/3/3 233/3/3
f 236/3/3 234/3/3 235/3/3
f 238/3/3 237/3/3 236/3/3
f 239/3/3 237/3/3 238/3/3
f 242/2/3 241/2/3 240/2/3
f 243/2/3 241/2/3 242/2/3
f 244/2/3 242/2/3 240/2/3
f 246/2/3 244/2/3 240/2/3
f 246/2/3 245/2/3 244/2/3
f 247/2/3 245/2/3 246/2/3
f 250/1/3 249/1/3 248/1/3
f 251/1/3 249/1/3 250/1/3
f 254/1/3 253/1/3 252/1/3
f 255/1/3 253/1/3 254/1/3
f 256/1/4 257/1/4 258/1/4
f 258/1/4 257/1/4 259/1/4
f 260/1/4 261/1/4 262/1/4
f 262/1/4 261/1/4 263/1/4
f 264/2/4 265/2/4 266/2/4
f 266/2/4 265/2/4 267/2/4
f 264/2/4 266/2/4 268/2/4
f 264/2/4 268/2/4 270/2/4
f 268/2/4 269/2/4 270/2/4
f 270/2/4 269/2/4 271/2/4
f 272/1/4 273/1/4 275/1/4
f 274/3/4 275/3/4 277/3/4
f 275/1/4 273/1/4 278/1/4
f 277/3/4 275/3/4 278/3/4
f 278/1/4 273/1/4 279/1/4
f 276/3/4 277/3/4 281/3/4
f 277/2/4 278/2/4 282/2/4
f 281/3/4 277/3/4 282/3/4
f 282/2/4 278/2/4 283/2/4
f 280/3/4 281/3/4 285/3/4
f 281/2/4 282/2/4 286/2/4
f 285/3/4 281/3/4 286/3/4
f 286/2/4 282/2/4 287/2/4
f 284/3/4 285/3/4 288/3/4
f 285/2/4 286/2/4 288/2/4
f 288/2/4 286/2/4 289/2/4
f 284/3/4 288/3/4 290/3/4
f 284/3/4 290/3/4 292/3/4
f 290/2/4 291/2/4 293/2/4
f 292/3/4 290/3/4 293/3/4
f 293/2/4 291/2/4 294/2/4
f 293/3/4 294/3/4 295/3/4
f 295/3/4 294/3/4 296/3/4
f 296/3/4 297/3/4 298/3/4
f 298/3/4 297/3/4 299/3/4
f 300/1/4 301/1/4 303/1/4
f 303/1/4 301/1/4 304/1/4
f 302/2/4 303/2/4 306/2/4
f 306/2/4 303/2/4 307/2/4
f 305/2/4 306/2/4 309/2/4
f 309/2/4 306/2/4 310/2/4
f 308/2/4 309/2/4 311/2/4
f 311/2/4 309/2/4 312/2/4
f 313/2/4 314/2/4 315/2/4
f 315/2/4 314/2/4 316/2/4
f 317/1/4 318/1/4 319/1/4
f 319/1/4 318/1/4 320/1/4
f 321/1/4 322/1/4 324/1/4
f 324/1/4 322/1/4 325/1/4
f 323/1/4 324/1/4 325/1/4
f 325/1/4 322/1/4 326/1/4
f 323/1/4 325/1/4 328/1/4
f 328/1/4 325/1/4 329/1/4
f 327/1/4 328/1/4 329/1/4
f 329/1/4 325/1/4 330/1/4
f 327/1/4 329/1/4 331/1/4
f 327/1/4 331/1/4 333/1/4
f 331/1/4 332/1/4 333/1/4
f 333/1/4 332/1/4 334/1/4
f 334/1/4 332/1/4 335/1/4
f 333/2/4 334/2/4 337/2/4
f 334/1/4 335/1/4 338/1/4
f 337/2/4 334/2/4 338/2/4
f 335/1/4 336/1/4 338/1/4
f 338/1/4 336/1/4 339/1/4
f 338/2/4 339/2/4 340/2/4
f 339/1/4 336/1/4 341/1/4
f 340/2/4 339/2/4 341/2/4
f 341/1/4 336/1/4 342/1/4
f 345/3/5 344/3/5 343/3/5
f 346/3/5 344/3/5 345/3/5
f 351/2/5 348/2/5 347/2/5
f 352/2/5 348/2/5 351/2/5
f 355/3/5 350/3/5 349/3/5
f 356/3/5 350/3/5 355/3/5
f 359/3/5 354/3/5 353/3/5
f 360/3/5 354/3/5 359/3/5
f 361/2/5 358/2/5 357/2/5
f 362/2/5 358/2/5 361/2/5
f 367/1/5 364/1/5 363/1/5
f 368/2/5 365/2/5 364/2/5
f 368/1/5 364/1/5 367/1/5
f 369/2/5 365/2/5 368/2/5
f 373/2/5 367/2/5 366/2/5
f 374/2/5 367/2/5 373/2/5
f 375/2/5 370/2/5 369/2/5
f 375/2/5 369/2/5 368/2/5
f 376/2/5 370/2/5 375/2/5
f 377/2/5 370/2/5 376/2/5
f 379/3/5 372/3/5 371/3/5
f 380/3/5 372/3/5 379/3/5
f 385/3/5 378/3/5 377/3/5
f 386/3/5 378/3/5 385/3/5
f 387/2/5 382/2/5 381/2/5
f 388/2/5 382/2/5 387/2/5
f 389/2/5 384/2/5 383/2/5
f 389/2/5 385/2/5 384/2/5
f 390/2/5 385/2/5 389/2/5
f 391/2/5 385/2/5 390/2/5
f 392/1/5 389/1/5 388/1/5
f 393/2/5 390/2/5 389/2/5
f 393/1/5 389/1/5 392/1/5
f 394/2/5 390/2/5 393/2/5
f 400/1/5 396/1/5 395/1/5
f 401/1/5 396/1/5 400/1/5
f 402/2/5 398/2/5 397/2/5
f 403/2/5 398/2/5 402/2/5
f 406/2/5 400/2/5 399/2/5
f 407/2/5 400/2/5 406/2/5
f 408/3/5 405/3/5 404/3/5
f 409/3/5 405/3/5 408/3/5
f 412/2/5 411/2/5 410/2/5
f 413/2/5 411/2/5 412/2/5
f 417/1/5 414/1/5 413/1/5
f 418/1/5 414/1/5 417/1/5
f 419/2/5 416/2/5 415/2/5
f 420/2/5 416/2/5 419/2/5
f 424/1/5 422/1/5 421/1/5
f 425/1/5 422/1/5 424/1/5
f 430/1/5 424/1/5 423/1/5
f 431/1/5 424/1/5 430/1/5
f 436/1/5 427/1/5 426/1/5
f 437/1/5 427/1/5 436/1/5
f 438/1/5 429/1/5 428/1/5
f 439/1/5 429/1/5 438/1/5
f 442/1/5 433/1/5 432/1/5
f 443/1/5 433/1/5 442/1/5
f 444/2/5 435/2/5 434/2/5
f 445/2/5 435/2/5 444/2/5
f 448/1/5 441/1/5 440/1/5
f 449/1/5 441/1/5 448/1/5
f 451/1/5 447/1/5 446/1/5
f 452/1/5 447/1/5 451/1/5
f 453/1/5 450/1/5 449/1/5
f 454/1/5 450/1/5 453/1/5
f 455/2/6 456/2/6 457/2/6
f 457/2/6 456/2/6 458/2/6
f 459/1/6 460/1/6 462/1/6
f 462/1/6 460/1/6 463/1/6
f 461/2/6 462/2/6 465/2/6
f 463/2/6 464/2/6 465/2/6
f 462/2/6 463/2/6 465/2/6
f 465/2/6 464/2/6 466/2/6
f 467/2/6 468/2/6 469/2/6
f 469/2/6 468/2/6 470/2/6
f 470/2/6 468/2/6 471/2/6
f 471/2/6 468/2/6 472/2/6
f 470/1/6 471/1/6 473/1/6
f 473/1/6 471/1/6 474/1/6
f 475/1/6 476/1/6 479/1/6
f 479/1/6 476/1/6 480/1/6
f 477/1/6 478/1/6 481/1/6
f 481/1/6 478/1/6 482/1/6
f 483/1/6 484/1/6 487/1/6
f 487/1/6 484/1/6 488/1/6
f 485/1/6 486/1/6 489/1/6
f 489/1/6 486/1/6 490/1/6
f 491/1/6 492/1/6 496/1/6
f 496/1/6 492/1/6 497/1/6
f 497/1/6 492/1/6 498/1/6
f 493/1/6 494/1/6 499/1/6
f 499/1/6 494/1/6 500/1/6
f 500/1/6 494/1/6 501/1/6
f 495/1/6 496/1/6 504/1/6
f 496/1/6 497/1/6 504/1/6
f 504/1/6 497/1/6 505/1/6
f 497/2/6 498/2/6 506/2/6
f 505/1/6 497/1/6 506/1/6
f 501/1/6 502/1/6 507/1/6
f 500/1/6 501/1/6 507/1/6
f 499/2/6 500/2/6 507/2/6
f 507/1/6 502/1/6 508/1/6
f 504/1/6 505/1/6 509/1/6
f 503/1/6 504/1/6 509/1/6
f 509/1/6 505/1/6 510/1/6
f 505/2/6 506/2/6 511/2/6
f 510/1/6 505/1/6 511/1/6
f 506/2/6 498/2/6 512/2/6
f 511/2/6 506/2/6 512/2/6
f 507/2/6 508/2/6 513/2/6
f 499/2/6 507/2/6 513/2/6
f 508/1/6 502/1/6 514/1/6
f 513/2/6 508/2/6 514/2/6
f 510/1/6 511/1/6 515/1/6
f 511/1/6 512/1/6 515/1/6
f 515/1/6 512/1/6 516/1/6
f 512/2/6 498/2/6 517/2/6
f 516/1/6 512/1/6 517/1/6
f 498/1/6 492/1/6 518/1/6
f 517/2/6 498/2/6 518/2/6
f 499/2/6 513/2/6 519/2/6
f 513/1/6 514/1/6 520/1/6
f 519/2/6 513/2/6 520/2/6
f 514/1/6 502/1/6 521/1/6
f 520/1/6 514/1/6 521/1/6
f 521/1/6 502/1/6 522/1/6
f 516/1/6 517/1/6 523/1/6
f 517/1/6 518/1/6 523/1/6
f 518/1/6 492/1/6 524/1/6
f 523/1/6 518/1/6 524/1/6
f 519/1/6 520/1/6 525/1/6
f 520/1/6 521/1/6 525/1/6
f 525/1/6 521/1/6 526/1/6
